<?xml version="1.0" encoding="utf-8"?>
<!-- Generator: Adobe Illustrator 24.0.1, SVG Export Plug-In . SVG Version: 6.00 Build 0)  -->
<svg version="1.1" id="Layer_1" xmlns="http://www.w3.org/2000/svg" xmlns:xlink="http://www.w3.org/1999/xlink" x="0px" y="0px"
	 viewBox="0 0 1200 1200" style="enable-background:new 0 0 1200 1200;" xml:space="preserve">
<style type="text/css">
	.st0{fill:#FCFAFA;}
</style>
<g>
	<path class="st0" d="M1174.3,76.62c0.01-5.85,0.53-12.27-2.8-17.26c-0.77-0.16-1.53-0.3-2.28-0.45c-0.98-0.06-1.93-0.11-2.88-0.16
		c-5.1-0.28-10.19-0.39-15.3-0.4h-3.21c-3.69,0-7.38-0.01-11.07,0h-10.18c-6.66-0.01-13.31-0.01-19.97-0.01
		c-5.45,0.01-10.9,0.01-16.36,0.01c-1.18,0-1.18,0-2.35,0h-4.73c-14.75-0.01-29.51-0.01-44.26,0h-38.13c-14.83,0-29.66-0.01-44.49,0
		H932.8c-6.72-0.01-13.44-0.01-20.17,0h-10.28c-3.18,0-6.36-0.01-9.54,0h-9.7c-7.73,0-9.33,6.67-9.38,13.53
		c0.02,0.81,0.03,1.6,0.04,2.39c0,2.68,0,5.36,0.03,8.04c0.02,1.91,0.03,3.82,0.04,5.73c0.01,5.02,0.03,10.03,0.07,15.04
		c0.04,5.2,0.06,10.39,0.08,15.58c0.04,10.11,0.09,20.21,0.16,30.31c0.01,1.11,0.02,2.18,0.03,3.25c-0.91-0.61-1.8-1.2-2.68-1.79
		c-11.75-7.87-23.61-15.37-35.99-22.21c-2.53-1.39-5.06-2.78-7.58-4.19c-10.32-5.81-20.73-11.19-31.57-15.96
		c-2.67-1.17-5.34-2.34-8-3.52c-73.31-32.07-145.82-45.87-219.27-45.49c-3.11,0.01-6.22,0.02-9.33,0.02
		c-16-0.03-31.95-0.14-47.86,1.81c-1.34,0.17-2.68,0.33-4.02,0.49c-3.8,0.44-7.59,0.92-11.37,1.45c-0.97,0.13-0.97,0.13-1.91,0.27
		c-63.09,8.81-126.75,27.33-182.32,59.03c-2.09,1.21-4.17,2.4-6.28,3.57c-17.22,9.38-33.83,19.63-49.84,30.96
		c-0.86,0.62-1.69,1.21-2.53,1.81c-9.03,6.4-17.91,12.92-26.5,19.91c-1.78,1.45-3.56,2.88-5.37,4.29
		c-4.33,3.38-8.42,6.94-12.44,10.68c-2.42,2.27-4.82,4.55-7.33,6.72c-4.11,3.53-8.01,7.22-11.85,11.05
		c-0.76,0.77-1.5,1.51-2.25,2.26c-6.97,6.99-13.82,14.08-20.49,21.37c-0.43,0.48-0.85,0.94-1.27,1.4
		c-9.14,9.96-17.93,20.19-26.21,30.87c-1.16,1.5-2.32,3-3.48,4.49c-33.62,42.79-61.4,92.29-79.1,143.77c-0.55,1.6-1.1,3.2-1.65,4.8
		c-4.96,14.39-10.19,28.79-13.55,43.66c-0.55,2.49-1.11,4.97-1.7,7.44c-4.3,17.78-7.72,35.62-10.33,53.72c-0.28,2-0.57,4-0.88,5.99
		c-3.37,21.39-3.58,42.72-3.56,64.33v2.26c4.2,117.2,28.66,197.37,67.9,266.17c0.38,0.67,0.76,1.32,1.13,1.97
		c9.38,16.63,19.39,32.83,30.54,48.33c1.22,1.69,2.44,3.38,3.64,5.09c5.24,7.53,10.79,14.72,16.63,21.8
		c1.66,2.02,3.31,4.03,4.94,6.07c3.88,4.82,7.92,9.45,12.14,13.99c2.45,2.64,4.83,5.32,7.17,8.07c1.42,1.72,1.42,1.72,2.62,2.91
		h1.78v1.78c1.22,0.61,2.4,1.2,3.58,1.79v1.78c1.21,0.61,2.39,1.2,3.57,1.79v1.78c1.21,0.61,2.39,1.2,3.57,1.79v1.79
		c1.21,0.6,2.39,1.19,3.57,1.78v1.79c1.22,0.6,2.39,1.19,3.57,1.78c0,1.79,0,1.79,1.63,3.46c0.74,0.65,1.45,1.27,2.17,1.9
		c2.04,1.81,3.89,3.38,6.29,4.69c0.77,0.34,0.77,0.34,1.52,0.67v1.78c1.9,0.86,1.9,0.86,3.61,2.53
		c6.08,5.69,12.42,10.99,18.92,16.21c1.12,0.89,2.24,1.79,3.36,2.69c41.84,34.3,89.73,61.28,140.02,81.04
		c0.97,0.38,1.9,0.74,2.84,1.11c49.72,19.4,105.23,33.39,158.77,34.65c1.84,0.04,3.68,0.1,5.52,0.17c2.1,0.56,3.87,0.9,6.06,1
		c1.46,0.01,1.46,0.01,2.89,0.01c1.11,0,2.2,0,3.28,0.01c1.79-0.01,3.58-0.01,5.36-0.01h7.56c3.26,0,6.52-0.01,9.79,0h11.31
		c5.63,0.01,11.26,0.15,16.85-0.56c2.99-0.5,2.99-0.5,6.12-0.61c51.12-1.81,103.79-13.81,151.5-31.92c0.85-0.33,1.68-0.64,2.5-0.96
		c12.14-4.65,24.09-9.74,35.98-15c1.22-0.54,1.22-0.54,2.41-1.07c5.64-2.47,11.12-5.08,16.49-8.08c4.74-2.66,9.47-5.33,14.32-7.78
		c5.53-2.68,10.75-5.63,15.95-8.9c1.72-1.08,3.45-2.15,5.18-3.2c1.04-0.63,1.04-0.63,2.06-1.25c1.4-0.85,2.8-1.69,4.21-2.54
		c3.46-2.08,6.88-4.18,10.21-6.47c0.8-0.57,1.59-1.12,2.37-1.67c0.82-0.57,1.61-1.13,2.4-1.69c0.62-0.43,1.22-0.86,1.82-1.28
		c0.04,5.43,0.11,10.86,0.18,16.29c0.03,2.22,0.06,4.43,0.09,6.65c0.03,3.26,0.06,6.53,0.11,9.8c0.02,1.05,0.04,2.08,0.05,3.1
		c0.01,1.02,0.01,2.01,0.02,3.01c0.02,0.95,0.03,1.88,0.05,2.81c0.05,3.85,0.73,6.13,3.07,9.24c2.02,1.29,3.45,1.77,5.85,2.01
		c0.9-0.01,1.77-0.01,2.64-0.01c1.04,0.01,2.04,0.01,3.05,0.02c1.14-0.01,2.25-0.01,3.35-0.02c3.77,0.01,7.54,0.02,11.31,0.01
		c3.49-0.01,6.97-0.01,10.45-0.01c6.82,0.01,13.64,0.01,20.46,0c8.01-0.01,16.02-0.01,24.03-0.01c14.27,0,28.53-0.01,42.79-0.02
		c13.9-0.01,27.8-0.02,41.7-0.02c1.32,0,1.32,0,2.6,0h2.6c15.87,0,31.75-0.01,47.62-0.01c5.61-0.01,11.21-0.01,16.81-0.01
		c6.9,0,13.8,0,20.69-0.01c3.52,0,7.04-0.01,10.56-0.01h9.79c1.21,0,2.39-0.01,3.56-0.01c1.14,0,2.25,0,3.36,0.01
		c1.54-0.01,1.54-0.01,3.04-0.01c3.41-0.01,6.04-0.01,8.94-2.02c2.21-3,2.21-3,2.24-13.25V974.58c0.01-23.57,0.01-47.14,0.01-70.72
		v-2.12c0-1.07,0-1.07,0-2.12c-0.01-21.36-0.01-42.73-0.01-64.09v-21.51c0-16.05,0.01-32.1,0.01-48.14c0-1.12,0-1.12,0-2.22
		c0-23.29,0-46.59-0.01-69.88c0-1.16,0-1.16,0-2.29V469.33c0.01-23.31,0.01-46.63,0.01-69.95v-2.22c0-16.06-0.01-32.13-0.01-48.2
		v-85.63c0-0.73,0-1.43,0.01-2.13v-2.12c0-23.64,0-47.28-0.01-70.93V76.62z M864.36,598.65c-0.19,0.87-0.38,1.73-0.57,2.62
		c-4,18.14-10.52,35.46-18.12,52.39c-0.61,1.36-1.22,2.74-1.82,4.11c-11.38,25.97-28.04,48.97-46.46,70.35
		c-0.57,0.67-1.14,1.34-1.73,2.03c-3.95,4.62-8.22,8.89-12.56,13.15c-0.75,0.76-1.51,1.51-2.28,2.29c-0.72,0.72-1.44,1.43-2.18,2.17
		c-0.5,0.52-1,1.04-1.51,1.58c-4.83,4.96-10.04,9.29-15.45,13.6c-0.71,0.58-1.42,1.16-2.15,1.75c-2.24,1.83-4.5,3.62-6.78,5.4
		c-0.91,0.71-1.82,1.42-2.75,2.16c-37.05,28.41-80.9,45.06-126.23,54.33c-12.9,2.65-23.65,5.74-33.53,14.94h-1.78v1.78h-1.79
		c-0.24,0.54-0.49,1.07-0.74,1.62c-1.01,1.89-2.01,3.06-3.5,4.58c-12.43,14.31-12.37,34.21-12.37,52.01
		c-0.02,2.14-0.03,4.28-0.05,6.42c-0.04,5.59-0.05,11.18-0.07,16.77c-0.02,5.72-0.05,11.44-0.09,17.17
		c-0.07,11.19-0.11,22.38-0.14,33.58c-2.24,0.01-4.48,0.02-6.71,0.03c-0.63,0-1.25,0.01-1.89,0.01c-6.54,0.02-12.97-0.54-19.47-1.21
		c-0.6-0.07-1.21-0.13-1.83-0.19c-9.17-0.93-18.23-2.04-27.25-4c-1.28-0.27-1.28-0.27-2.6-0.55c-12.74-2.75-25.27-5.83-37.58-10.16
		c-0.72-0.26-1.44-0.51-2.19-0.78c-26.31-9.39-51.15-21.95-73.7-38.51c-0.61-0.45-1.22-0.9-1.86-1.36
		c-11.11-8.22-21.93-16.87-31.6-26.77c-1.43-1.46-1.43-1.46-3.54-2.95c-0.69-0.53-0.69-0.53-1.39-1.06v-1.79h-1.79
		c-1.23-1.22-1.23-1.22-2.68-2.96c-2.49-2.94-5.06-5.78-7.7-8.59c-5.93-6.51-11.17-13.53-16.4-20.59c-0.61-0.81-0.61-0.81-1.22-1.63
		c-2.65-3.57-5.21-7.2-7.71-10.87c-0.4-0.59-0.8-1.17-1.21-1.78c-27.51-40.87-43.3-88.19-48.53-137.03
		c-0.23-1.98-0.51-3.94-0.82-5.9c-2.69-18.09-2.41-37.86,0.27-55.93c0.33-2.4,0.59-4.8,0.84-7.21
		c4.38-41.05,17.09-80.61,39.62-115.37c0.41-0.63,0.81-1.26,1.23-1.91c6.33-9.76,13.55-18.72,21.1-27.56
		c0.56-0.67,1.12-1.34,1.7-2.03c0.56-0.66,1.11-1.31,1.69-1.99c0.5-0.6,1.01-1.19,1.53-1.81c1.33-1.31,1.33-1.31,3.11-1.31
		c0.36-0.8,0.36-0.8,0.72-1.61c1.11-2.04,2.23-3.28,3.93-4.87c0.57-0.53,1.15-1.07,1.74-1.62c0.93-0.86,0.93-0.86,1.87-1.72
		c0.64-0.6,1.29-1.19,1.95-1.8c1.95-1.79,3.9-3.57,5.86-5.35c0.54-0.48,1.07-0.97,1.63-1.47c16.81-15.09,35.7-27.9,55.52-38.71
		c0.6-0.33,1.2-0.66,1.81-0.99c32.43-17.75,66.88-30.31,102.64-39.43c18.48-4.72,33.97-11.85,44.16-29
		c7.32-12.6,7.25-26.06,7.18-40.21c-0.01-3.39-0.01-6.77,0.01-10.16c0.02-7.17,0.01-14.33,0-21.5c-0.01-8.35,0-16.7,0.03-25.05
		c0-3.33-0.01-6.67-0.03-10.01c0.01-2.03,0.01-4.06,0.02-6.1c-0.01-0.93-0.02-1.86-0.03-2.81c0.01-0.85,0.01-1.7,0.02-2.57v-2.24
		c0.44-1.89,0.44-1.89,2.13-3.47c2.27-1.33,3.53-1.38,6.13-1.26c0.84,0.03,1.68,0.07,2.55,0.1c0.91,0.06,1.81,0.11,2.75,0.17
		c0.94,0.05,1.89,0.1,2.87,0.15c18.16,1.07,35.92,3.79,53.66,7.77c1.24,0.28,1.24,0.28,2.51,0.56c16.08,3.6,31.32,9.43,46.59,15.52
		c0.83,0.32,1.66,0.65,2.51,0.99c17.85,7.22,34.48,17.39,50.17,28.47c0.7,0.49,1.4,0.99,2.12,1.5
		c11.71,8.32,22.96,17.12,33.01,27.41c1.53,1.5,3.13,2.87,4.77,4.24c5.3,4.58,9.91,9.85,14.57,15.07c0.44,0.48,0.87,0.97,1.32,1.47
		c11.21,12.53,21.18,26.14,29.93,40.49c0.34,0.56,0.69,1.12,1.04,1.69c10.49,17.06,18.9,34.86,25.74,53.67
		c0.31,0.83,0.62,1.66,0.94,2.51c5.84,15.79,9.31,31.9,12.46,48.38c0.16,0.84,0.33,1.68,0.5,2.54
		C875.93,521.06,872.7,560.53,864.36,598.65z"/>
</g>
</svg>
