<?xml version="1.0" encoding="utf-8"?>
<!-- Generator: Adobe Illustrator 24.0.1, SVG Export Plug-In . SVG Version: 6.00 Build 0)  -->
<svg version="1.1" xmlns="http://www.w3.org/2000/svg" xmlns:xlink="http://www.w3.org/1999/xlink" x="0px" y="0px"
	 viewBox="0 0 1200 1200" style="enable-background:new 0 0 1200 1200;" xml:space="preserve">
<style type="text/css">
	.st0{display:none;}
	.st1{display:inline;}
	.st2{fill:#FFFFFF;}
	.st3{fill:#FCFCFC;}
</style>
<g id="Layer_1" class="st0">
	<g class="st1">
		<path class="st2" d="M32.3,599.4c-1.38-79.35,65.62-149.53,150.79-148.81c83.19,0.7,149.26,67.09,148.97,150.81
			c-0.28,82.18-67.73,148.31-150.98,148.02C98.22,749.13,32.11,682.47,32.3,599.4z M274.2,692.08c0-61.84,0-122.72,0-183.55
			c-61.8,0-122.89,0-183.95,0c0,61.52,0,122.41,0,183.55C151.83,692.08,212.69,692.08,274.2,692.08z"/>
		<path class="st2" d="M573.04,577.88c0.42-2.98,0.77-5.48,1.2-8.57c7.2,0,14.47,0,22.89,0c0,11.35,0,22.58,0,33.8
			c0,14.9,0.29,29.8-0.08,44.69c-0.4,16.06-6.46,29.02-22.32,35.48c-15.86,6.45-39.19,2.55-49.26-8.93
			c-4.08-4.65-6.28-10.93-10.06-17.8c12.28,0.32,21.71-2.21,31.07,6.38c9.81,8.99,24.94,1.4,26.79-11.89
			c0.57-4.07,0.09-8.28,0.09-11.58c-7.27,2.79-14.51,7.05-22.22,8.22c-13.89,2.1-26.1-5.19-32.22-17.75
			c-6.45-13.25-6.91-27.12-1.52-40.73c8.88-22.41,34.03-28.31,52.8-12.79C570.79,576.9,571.61,577.15,573.04,577.88z M537.95,607.58
			c-0.09,12,7.23,20.33,17.8,20.28c10.1-0.05,17.65-8.29,17.86-19.53c0.22-11.61-7.45-20.17-18.06-20.15
			C545.08,588.19,538.03,595.97,537.95,607.58z"/>
		<path class="st2" d="M1085.54,569.04c7.68,0,14.79,0,22.25,0c0.28,2.86,0.53,5.45,0.78,8.05c0.59,0.15,1.33,0.57,1.58,0.38
			c24.01-18.96,52.69-7.93,56.99,22.11c0.75,5.25,0.8,10.79,0.03,16.03c-2.01,13.74-8.22,25.09-21.94,30.24
			c-13.11,4.92-25.19,2.56-36.64-9.06c0,16.79,0,31.96,0,47.64c-8.22,0-15.26,0-23.05,0
			C1085.54,646.32,1085.54,608.1,1085.54,569.04z M1108.16,607.66c-0.1,11.92,7.14,20.19,17.69,20.2
			c10.34,0.01,18.14-8.64,18.11-20.09c-0.03-11.32-7.21-19.33-17.49-19.54C1115.51,588,1108.26,595.7,1108.16,607.66z"/>
		<path class="st2" d="M984.31,548.63c7.66,0,14.71,0,23.09,0c0,12.74-0.01,25.1,0.01,37.45c0.01,7.73-0.18,15.48,0.18,23.2
			c0.5,10.83,5.85,16.37,15.64,16.87c11.98,0.61,18.84-4.11,19.53-15.69c0.96-16.01,0.49-32.1,0.61-48.15
			c0.03-4.39,0.01-8.77,0.01-13.62c8.05,0,15.1,0,23.47,0c0,4.03,0.07,7.74-0.01,11.45c-0.41,19.3,0.61,38.77-1.68,57.85
			c-2.41,20-20.33,30.88-44.14,29.81c-20.45-0.92-35.39-13.52-36.43-33.23C983.43,592.96,984.31,571.26,984.31,548.63z"/>
		<path class="st2" d="M638.92,647.11c-8.32,0-15.39,0-23.01,0c0-34.43,0-68.53,0-103.37c7.31,0,14.56,0,22.98,0
			c0,11.12,0,22.21,0,32.44c7.87-2.83,14.76-6.66,22.04-7.65c16.9-2.3,30.13,6.94,31.74,23.87c1.7,17.89,0.38,36.07,0.38,54.59
			c-7.08,0-14.12,0-22.42,0c0-13.99,0.24-27.87-0.07-41.74c-0.3-13.71-10.4-21.26-21.82-16.68c-7.92,3.18-9.67,10.05-9.77,17.52
			C638.8,619.45,638.92,632.83,638.92,647.11z"/>
		<path class="st2" d="M842.37,613.46c-17.37,0-34.91,0-55.9,0c4.06,5.87,5.98,11.48,9.76,13.33c4.17,2.04,12.14,2.85,14.8,0.34
			c9.31-8.78,19.68-3.58,29.7-5.6c-3.18,19.02-23.63,30.12-45.78,25.85c-21.93-4.22-34.71-27.17-28.69-51.54
			c5.28-21.38,27.57-32.99,51.02-26.58C836.27,574.46,848.05,594.81,842.37,613.46z M789.8,600.08c9.81,0,19.61,0,29.52,0
			c-1.6-9.93-6.51-14-15.67-13.63C795.12,586.79,790.59,591.24,789.8,600.08z"/>
		<path class="st2" d="M881.03,647.22c-8.35,0-15.18,0-22.74,0c0-25.88,0-51.57,0-77.88c7.25,0,14.56,0,22.19,0
			c0.34,2.52,0.68,5.05,0.97,7.18c6.43-2.75,12.31-6.61,18.67-7.73c19.81-3.48,34.02,7.44,35.67,27.76
			c1.11,13.61,0.33,27.37,0.39,41.06c0.01,2.92,0,5.83,0,9.28c-7.99,0-15.25,0-23.46,0c0-13.66,0.3-26.98-0.17-40.28
			c-0.16-4.55-0.89-10.49-3.79-13.16c-3.64-3.34-9.77-5.34-14.86-5.41c-6.48-0.09-11.24,4.69-11.84,11.33
			c-0.87,9.75-0.79,19.59-1,29.39C880.92,634.66,881.03,640.55,881.03,647.22z"/>
		<path class="st2" d="M413.6,566.86c-9.69,0-17.38,0-25.69,0c0-6.21,0-11.95,0-18.11c25.16,0,50.04,0,75.45,0
			c0,6.06,0,11.55,0,18.03c-8.4,0-16.58,0-25.76,0c0,27.21,0,53.49,0,80.16c-8.31,0-15.59,0-24.01,0
			C413.6,620.16,413.6,593.87,413.6,566.86z"/>
		<path class="st2" d="M715.63,588.89c-3.51-0.48-6.07-0.84-9-1.24c0-6.26,0-12.08,0-18.45c2.85-0.3,5.4-0.58,8.65-0.92
			c0-6.13,0-11.97,0-18.47c8.01,0,15.3,0,23.45,0c0,5.7,0,11.51,0,18.48c5.65,0.27,10.53,0.5,15.93,0.76c0,6.15,0,11.98,0,18.72
			c-4.74,0.32-9.64,0.65-15.49,1.05c0,10.69-0.49,21.07,0.34,31.34c0.21,2.63,4.3,5.49,7.23,7.17c2.02,1.16,5.11,0.49,8.11,0.67
			c0,6.32,0,12.19,0,18.05c-24.42,6.48-39.15-4.65-39.22-29.6C715.61,607.54,715.63,598.63,715.63,588.89z"/>
		<path class="st2" d="M499.74,647.06c-7.65,0-14.71,0-22.29,0c0-26.07,0-51.76,0-77.88c7.48,0,14.54,0,22.29,0
			C499.74,594.85,499.74,620.54,499.74,647.06z"/>
		<path class="st2" d="M488.22,534.52c8.41-0.11,14.1,4.87,14.14,12.39c0.04,7.32-6.06,12.93-13.97,12.85
			c-7.59-0.08-13.42-5.28-13.69-12.23C474.41,539.87,479.85,534.63,488.22,534.52z"/>
		<path class="st2" d="M110.04,529.79c20.83,0,40.78,0,61.43,0c0,47.14,0,93.99,0,141.43c-20.36,0-40.54,0-61.43,0
			C110.04,624.25,110.04,577.42,110.04,529.79z"/>
		<path class="st2" d="M190.94,529.89c20.87,0,41,0,61.77,0c0,20.67,0,40.95,0,61.76c-20.58,0-40.93,0-61.77,0
			C190.94,571.1,190.94,551.03,190.94,529.89z"/>
		<path class="st2" d="M191.19,610.2c20.48,0,40.61,0,61.45,0c0,20.41,0,40.66,0,61.42c-20.48,0-40.59,0-61.45,0
			C191.19,651.4,191.19,631.39,191.19,610.2z"/>
	</g>
</g>
<g id="Layer_2">
	<g>
		<path class="st3" d="M581.18,933.07c-1.1-0.06-2.2-0.12-3.31-0.18c-185.07-11.29-356.63-69.78-501.5-186.83
			c-11.91-9.62-22.9-20.37-34.31-30.6c1.62-2.32,3.23-4.64,4.85-6.96c6.04,2.21,12.54,3.62,18.05,6.75
			c111.19,63.29,230.2,106.08,356.3,125.5c72.79,11.21,147.28,17.86,220.81,16.49c131.98-2.46,260-30.32,382.64-80.35
			c3.61-1.47,7.35-4.28,10.85-4.03c7.44,0.53,14.76,2.67,22.13,4.14c-3.26,6.77-4.96,15.23-10.11,19.93
			c-9,8.23-19.86,14.59-30.4,20.97c-99.94,60.48-208.76,94.45-324.51,107.67C654.51,929.94,619.57,935.01,581.18,933.07z"/>
		<path class="st3" d="M998.94,266.73c23.64,1.24,47.1,7.36,72.01,13.41c20.15,4.9,27.76,18.45,25.97,39.29
			c-1.29,14.98-6.38,18.04-19.73,12.21c-32.88-14.36-67.03-20.35-102.65-12.77c-25.3,5.39-36.74,15.94-38.87,34.64
			c-2.43,21.38,6.25,35.52,31.3,45.54c22.85,9.14,46.59,16.06,69.92,24c56.64,19.29,81.81,49.74,78.23,94.58
			c-3.92,49.16-40.92,84.75-96.19,94.46c-42.29,7.43-82.79,1.05-122.69-12.39c-17.54-5.91-28.44-16.31-26.47-37.29
			c1.73-18.4,5.18-22.26,22.68-14.78c32.96,14.07,67.14,20.51,102.69,17c12.61-1.24,26.01-4.38,36.97-10.42
			c30.53-16.83,30.29-55.99-0.87-71.37c-20.16-9.95-42.51-15.51-63.89-23.01c-11.62-4.07-23.67-7.2-34.82-12.29
			c-36.91-16.84-58.85-44.85-58.2-86.37c0.64-40.93,30.44-71.51,67.08-85.66C961.25,267.85,980.15,265.75,998.94,266.73z"/>
		<path class="st3" d="M712.96,543.29c11.4-43.07,21.56-80.96,31.45-118.92c10.77-41.3,21.93-82.52,31.62-124.08
			c4.12-17.67,12.65-24.58,31.02-24.19c40.24,0.87,40.2,0.11,27.89,39.38c-27.48,87.67-55.43,175.19-81.95,263.15
			c-6.09,20.19-15.7,29.99-37.12,26.59c-5.07-0.8-10.41-0.32-15.59,0.08c-15.58,1.22-23.05-5.34-26.7-21.11
			c-17.08-73.77-35.35-147.26-53.21-220.85c-0.71-2.91-1.63-5.78-6.16-9.01c-8.39,34.68-16.8,69.35-25.17,104.03
			c-10.18,42.15-20.8,84.19-30.22,126.51c-3.3,14.8-10.53,20.36-25.53,20.01c-51.57-1.19-42.53,6.43-57.77-42.62
			c-25.92-83.43-51.19-167.06-76.5-250.67c-3.11-10.26-4.75-20.96-7.81-34.8c19.21,0,35.72-2.36,50.94,1.03
			c7.2,1.61,15,13.42,17.28,21.99c20.31,76.31,39.45,152.93,58.96,229.45c0.47,1.85,1.19,3.64,3.42,10.38
			c5.93-23.26,11.08-42.18,15.56-61.26c13.62-57.98,26.56-116.11,40.84-173.93c2.4-9.71,8.89-24.6,15.59-25.84
			c16.59-3.07,34.7-1.16,51.5,2.22c4.62,0.93,7.97,13.81,9.87,21.7c18.35,76.11,36.27,152.33,54.32,228.51
			C710,533.31,710.73,535.53,712.96,543.29z"/>
		<path class="st3" d="M295.26,421.51c0-9.04-0.07-15.45,0.01-21.86c0.83-63.19-25.81-88.47-88.91-81.39
			c-22.97,2.58-45.29,10.61-68.04,15.59c-9.47,2.07-20.57,14.71-28.47-1.03c-7.09-14.12-0.01-36.92,13.61-41.89
			c23.06-8.42,46.68-18.9,70.6-20.5c31.23-2.09,64.12-0.74,94.27,6.97c46.73,11.96,63.93,50.32,65.88,95.02
			c1.79,40.8-1.06,81.84,1.39,122.57c1.41,23.39,6.26,47.62,15.06,69.24c10.07,24.72-10.02,26.7-21.08,36.07
			c-11.89,10.08-22.38,8.31-30.92-4.73c-6.69-10.23-13.36-20.46-20.69-31.69c-33.05,36.39-73.27,53.67-122.13,48.86
			c-47.27-4.65-80.49-33.45-86.85-75.3c-7.78-51.17,13.07-93.31,56.31-112.94c43.18-19.6,87.68-13.76,132.2-6.14
			C282.54,419.23,287.57,420.15,295.26,421.51z M239.7,453.86c-1.95-0.34-3.9-0.63-5.88-0.79c-6.52-0.52-12.59,1.4-18.98,2.23
			c-9.92,1.28-19.85,2.77-29.42,5.8c-21.77,6.91-32.71,24.32-33.75,47.34c-1.01,22.15,4.48,41.44,25.9,52.2
			c35.96,18.06,98.03-5.98,112.76-43.23c17.18-43.44,7.66-58.96-37.75-61.58C248.24,455.58,243.99,454.61,239.7,453.86z"/>
		<path class="st3" d="M955.85,725.44c5.16-4.12,9.84-9.1,15.54-12.22c51.93-28.44,107.31-31.4,164.28-21.18
			c15.69,2.81,22.87,11.6,22.22,28.47c-2.24,57.88-22.02,108.47-60.87,151.52c-4.94,5.47-11.11,9.83-20.72,12.18
			c1.07-4.45,1.91-8.97,3.26-13.33c10.84-35.13,22.87-69.95,32.28-105.45c6.05-22.84-2.51-36.91-25.79-38.26
			c-35.95-2.09-72.19,0.48-108.3,1.27c-6.65,0.14-13.27,1.19-19.91,1.82C957.19,728.64,956.52,727.04,955.85,725.44z"/>
	</g>
</g>
</svg>
