<?xml version="1.0" encoding="utf-8"?>
<!-- Generator: Adobe Illustrator 24.0.1, SVG Export Plug-In . SVG Version: 6.00 Build 0)  -->
<svg version="1.1" xmlns="http://www.w3.org/2000/svg" xmlns:xlink="http://www.w3.org/1999/xlink" x="0px" y="0px"
	 viewBox="0 0 1200 1200" style="enable-background:new 0 0 1200 1200;" xml:space="preserve">
<style type="text/css">
	.st0{display:none;}
	.st1{display:inline;}
	.st2{fill:#FCFAFA;}
	.st3{fill:#FFFFFF;}
</style>
<g id="Layer_1" class="st0">
	<g class="st1">
		<path class="st2" d="M1174.3,76.62c0.01-5.85,0.53-12.27-2.8-17.26c-0.77-0.16-1.53-0.3-2.28-0.45c-0.98-0.06-1.93-0.11-2.88-0.16
			c-5.1-0.28-10.19-0.39-15.3-0.4h-3.21c-3.69,0-7.38-0.01-11.07,0h-10.18c-6.66-0.01-13.31-0.01-19.97-0.01
			c-5.45,0.01-10.9,0.01-16.36,0.01c-1.18,0-1.18,0-2.35,0h-4.73c-14.75-0.01-29.51-0.01-44.26,0h-38.13
			c-14.83,0-29.66-0.01-44.49,0H932.8c-6.72-0.01-13.44-0.01-20.17,0h-10.28c-3.18,0-6.36-0.01-9.54,0h-9.7
			c-7.73,0-9.33,6.67-9.38,13.53c0.02,0.81,0.03,1.6,0.04,2.39c0,2.68,0,5.36,0.03,8.04c0.02,1.91,0.03,3.82,0.04,5.73
			c0.01,5.02,0.03,10.03,0.07,15.04c0.04,5.2,0.06,10.39,0.08,15.58c0.04,10.11,0.09,20.21,0.16,30.31
			c0.01,1.11,0.02,2.18,0.03,3.25c-0.91-0.61-1.8-1.2-2.68-1.79c-11.75-7.87-23.61-15.37-35.99-22.21
			c-2.53-1.39-5.06-2.78-7.58-4.19c-10.32-5.81-20.73-11.19-31.57-15.96c-2.67-1.17-5.34-2.34-8-3.52
			c-73.31-32.07-145.82-45.87-219.27-45.49c-3.11,0.01-6.22,0.02-9.33,0.02c-16-0.03-31.95-0.14-47.86,1.81
			c-1.34,0.17-2.68,0.33-4.02,0.49c-3.8,0.44-7.59,0.92-11.37,1.45c-0.97,0.13-0.97,0.13-1.91,0.27
			c-63.09,8.81-126.75,27.33-182.32,59.03c-2.09,1.21-4.17,2.4-6.28,3.57c-17.22,9.38-33.83,19.63-49.84,30.96
			c-0.86,0.62-1.69,1.21-2.53,1.81c-9.03,6.4-17.91,12.92-26.5,19.91c-1.78,1.45-3.56,2.88-5.37,4.29
			c-4.33,3.38-8.42,6.94-12.44,10.68c-2.42,2.27-4.82,4.55-7.33,6.72c-4.11,3.53-8.01,7.22-11.85,11.05
			c-0.76,0.77-1.5,1.51-2.25,2.26c-6.97,6.99-13.82,14.08-20.49,21.37c-0.43,0.48-0.85,0.94-1.27,1.4
			c-9.14,9.96-17.93,20.19-26.21,30.87c-1.16,1.5-2.32,3-3.48,4.49c-33.62,42.79-61.4,92.29-79.1,143.77c-0.55,1.6-1.1,3.2-1.65,4.8
			c-4.96,14.39-10.19,28.79-13.55,43.66c-0.55,2.49-1.11,4.97-1.7,7.44c-4.3,17.78-7.72,35.62-10.33,53.72c-0.28,2-0.57,4-0.88,5.99
			c-3.37,21.39-3.58,42.72-3.56,64.33v2.26c4.2,117.2,28.66,197.37,67.9,266.17c0.38,0.67,0.76,1.32,1.13,1.97
			c9.38,16.63,19.39,32.83,30.54,48.33c1.22,1.69,2.44,3.38,3.64,5.09c5.24,7.53,10.79,14.72,16.63,21.8
			c1.66,2.02,3.31,4.03,4.94,6.07c3.88,4.82,7.92,9.45,12.14,13.99c2.45,2.64,4.83,5.32,7.17,8.07c1.42,1.72,1.42,1.72,2.62,2.91
			h1.78v1.78c1.22,0.61,2.4,1.2,3.58,1.79v1.78c1.21,0.61,2.39,1.2,3.57,1.79v1.78c1.21,0.61,2.39,1.2,3.57,1.79v1.79
			c1.21,0.6,2.39,1.19,3.57,1.78v1.79c1.22,0.6,2.39,1.19,3.57,1.78c0,1.79,0,1.79,1.63,3.46c0.74,0.65,1.45,1.27,2.17,1.9
			c2.04,1.81,3.89,3.38,6.29,4.69c0.77,0.34,0.77,0.34,1.52,0.67v1.78c1.9,0.86,1.9,0.86,3.61,2.53
			c6.08,5.69,12.42,10.99,18.92,16.21c1.12,0.89,2.24,1.79,3.36,2.69c41.84,34.3,89.73,61.28,140.02,81.04
			c0.97,0.38,1.9,0.74,2.84,1.11c49.72,19.4,105.23,33.39,158.77,34.65c1.84,0.04,3.68,0.1,5.52,0.17c2.1,0.56,3.87,0.9,6.06,1
			c1.46,0.01,1.46,0.01,2.89,0.01c1.11,0,2.2,0,3.28,0.01c1.79-0.01,3.58-0.01,5.36-0.01h7.56c3.26,0,6.52-0.01,9.79,0h11.31
			c5.63,0.01,11.26,0.15,16.85-0.56c2.99-0.5,2.99-0.5,6.12-0.61c51.12-1.81,103.79-13.81,151.5-31.92c0.85-0.33,1.68-0.64,2.5-0.96
			c12.14-4.65,24.09-9.74,35.98-15c1.22-0.54,1.22-0.54,2.41-1.07c5.64-2.47,11.12-5.08,16.49-8.08c4.74-2.66,9.47-5.33,14.32-7.78
			c5.53-2.68,10.75-5.63,15.95-8.9c1.72-1.08,3.45-2.15,5.18-3.2c1.04-0.63,1.04-0.63,2.06-1.25c1.4-0.85,2.8-1.69,4.21-2.54
			c3.46-2.08,6.88-4.18,10.21-6.47c0.8-0.57,1.59-1.12,2.37-1.67c0.82-0.57,1.61-1.13,2.4-1.69c0.62-0.43,1.22-0.86,1.82-1.28
			c0.04,5.43,0.11,10.86,0.18,16.29c0.03,2.22,0.06,4.43,0.09,6.65c0.03,3.26,0.06,6.53,0.11,9.8c0.02,1.05,0.04,2.08,0.05,3.1
			c0.01,1.02,0.01,2.01,0.02,3.01c0.02,0.95,0.03,1.88,0.05,2.81c0.05,3.85,0.73,6.13,3.07,9.24c2.02,1.29,3.45,1.77,5.85,2.01
			c0.9-0.01,1.77-0.01,2.64-0.01c1.04,0.01,2.04,0.01,3.05,0.02c1.14-0.01,2.25-0.01,3.35-0.02c3.77,0.01,7.54,0.02,11.31,0.01
			c3.49-0.01,6.97-0.01,10.45-0.01c6.82,0.01,13.64,0.01,20.46,0c8.01-0.01,16.02-0.01,24.03-0.01c14.27,0,28.53-0.01,42.79-0.02
			c13.9-0.01,27.8-0.02,41.7-0.02c1.32,0,1.32,0,2.6,0h2.6c15.87,0,31.75-0.01,47.62-0.01c5.61-0.01,11.21-0.01,16.81-0.01
			c6.9,0,13.8,0,20.69-0.01c3.52,0,7.04-0.01,10.56-0.01h9.79c1.21,0,2.39-0.01,3.56-0.01c1.14,0,2.25,0,3.36,0.01
			c1.54-0.01,1.54-0.01,3.04-0.01c3.41-0.01,6.04-0.01,8.94-2.02c2.21-3,2.21-3,2.24-13.25V974.58c0.01-23.57,0.01-47.14,0.01-70.72
			v-2.12c0-1.07,0-1.07,0-2.12c-0.01-21.36-0.01-42.73-0.01-64.09v-21.51c0-16.05,0.01-32.1,0.01-48.14c0-1.12,0-1.12,0-2.22
			c0-23.29,0-46.59-0.01-69.88c0-1.16,0-1.16,0-2.29V469.33c0.01-23.31,0.01-46.63,0.01-69.95v-2.22c0-16.06-0.01-32.13-0.01-48.2
			v-85.63c0-0.73,0-1.43,0.01-2.13v-2.12c0-23.64,0-47.28-0.01-70.93V76.62z M864.36,598.65c-0.19,0.87-0.38,1.73-0.57,2.62
			c-4,18.14-10.52,35.46-18.12,52.39c-0.61,1.36-1.22,2.74-1.82,4.11c-11.38,25.97-28.04,48.97-46.46,70.35
			c-0.57,0.67-1.14,1.34-1.73,2.03c-3.95,4.62-8.22,8.89-12.56,13.15c-0.75,0.76-1.51,1.51-2.28,2.29
			c-0.72,0.72-1.44,1.43-2.18,2.17c-0.5,0.52-1,1.04-1.51,1.58c-4.83,4.96-10.04,9.29-15.45,13.6c-0.71,0.58-1.42,1.16-2.15,1.75
			c-2.24,1.83-4.5,3.62-6.78,5.4c-0.91,0.71-1.82,1.42-2.75,2.16c-37.05,28.41-80.9,45.06-126.23,54.33
			c-12.9,2.65-23.65,5.74-33.53,14.94h-1.78v1.78h-1.79c-0.24,0.54-0.49,1.07-0.74,1.62c-1.01,1.89-2.01,3.06-3.5,4.58
			c-12.43,14.31-12.37,34.21-12.37,52.01c-0.02,2.14-0.03,4.28-0.05,6.42c-0.04,5.59-0.05,11.18-0.07,16.77
			c-0.02,5.72-0.05,11.44-0.09,17.17c-0.07,11.19-0.11,22.38-0.14,33.58c-2.24,0.01-4.48,0.02-6.71,0.03
			c-0.63,0-1.25,0.01-1.89,0.01c-6.54,0.02-12.97-0.54-19.47-1.21c-0.6-0.07-1.21-0.13-1.83-0.19c-9.17-0.93-18.23-2.04-27.25-4
			c-1.28-0.27-1.28-0.27-2.6-0.55c-12.74-2.75-25.27-5.83-37.58-10.16c-0.72-0.26-1.44-0.51-2.19-0.78
			c-26.31-9.39-51.15-21.95-73.7-38.51c-0.61-0.45-1.22-0.9-1.86-1.36c-11.11-8.22-21.93-16.87-31.6-26.77
			c-1.43-1.46-1.43-1.46-3.54-2.95c-0.69-0.53-0.69-0.53-1.39-1.06v-1.79h-1.79c-1.23-1.22-1.23-1.22-2.68-2.96
			c-2.49-2.94-5.06-5.78-7.7-8.59c-5.93-6.51-11.17-13.53-16.4-20.59c-0.61-0.81-0.61-0.81-1.22-1.63
			c-2.65-3.57-5.21-7.2-7.71-10.87c-0.4-0.59-0.8-1.17-1.21-1.78c-27.51-40.87-43.3-88.19-48.53-137.03
			c-0.23-1.98-0.51-3.94-0.82-5.9c-2.69-18.09-2.41-37.86,0.27-55.93c0.33-2.4,0.59-4.8,0.84-7.21
			c4.38-41.05,17.09-80.61,39.62-115.37c0.41-0.63,0.81-1.26,1.23-1.91c6.33-9.76,13.55-18.72,21.1-27.56
			c0.56-0.67,1.12-1.34,1.7-2.03c0.56-0.66,1.11-1.31,1.69-1.99c0.5-0.6,1.01-1.19,1.53-1.81c1.33-1.31,1.33-1.31,3.11-1.31
			c0.36-0.8,0.36-0.8,0.72-1.61c1.11-2.04,2.23-3.28,3.93-4.87c0.57-0.53,1.15-1.07,1.74-1.62c0.93-0.86,0.93-0.86,1.87-1.72
			c0.64-0.6,1.29-1.19,1.95-1.8c1.95-1.79,3.9-3.57,5.86-5.35c0.54-0.48,1.07-0.97,1.63-1.47c16.81-15.09,35.7-27.9,55.52-38.71
			c0.6-0.33,1.2-0.66,1.81-0.99c32.43-17.75,66.88-30.31,102.64-39.43c18.48-4.72,33.97-11.85,44.16-29
			c7.32-12.6,7.25-26.06,7.18-40.21c-0.01-3.39-0.01-6.77,0.01-10.16c0.02-7.17,0.01-14.33,0-21.5c-0.01-8.35,0-16.7,0.03-25.05
			c0-3.33-0.01-6.67-0.03-10.01c0.01-2.03,0.01-4.06,0.02-6.1c-0.01-0.93-0.02-1.86-0.03-2.81c0.01-0.85,0.01-1.7,0.02-2.57v-2.24
			c0.44-1.89,0.44-1.89,2.13-3.47c2.27-1.33,3.53-1.38,6.13-1.26c0.84,0.03,1.68,0.07,2.55,0.1c0.91,0.06,1.81,0.11,2.75,0.17
			c0.94,0.05,1.89,0.1,2.87,0.15c18.16,1.07,35.92,3.79,53.66,7.77c1.24,0.28,1.24,0.28,2.51,0.56c16.08,3.6,31.32,9.43,46.59,15.52
			c0.83,0.32,1.66,0.65,2.51,0.99c17.85,7.22,34.48,17.39,50.17,28.47c0.7,0.49,1.4,0.99,2.12,1.5
			c11.71,8.32,22.96,17.12,33.01,27.41c1.53,1.5,3.13,2.87,4.77,4.24c5.3,4.58,9.91,9.85,14.57,15.07c0.44,0.48,0.87,0.97,1.32,1.47
			c11.21,12.53,21.18,26.14,29.93,40.49c0.34,0.56,0.69,1.12,1.04,1.69c10.49,17.06,18.9,34.86,25.74,53.67
			c0.31,0.83,0.62,1.66,0.94,2.51c5.84,15.79,9.31,31.9,12.46,48.38c0.16,0.84,0.33,1.68,0.5,2.54
			C875.93,521.06,872.7,560.53,864.36,598.65z"/>
	</g>
</g>
<g id="Layer_2">
	<g>
		<path class="st3" d="M18.53,587.47c1.37-5.48,2.27-11.12,4.18-16.4c13.84-38.25,58.48-52.17,94.13-29.46
			c16.42,10.46,26.99,25.76,35.24,42.95c1.47,3.06,2.83,6.17,4.7,10.26c1.66-3.65,2.9-6.49,4.23-9.3
			c8.82-18.7,20.15-35.47,38.74-45.63c20.95-11.45,42.75-13.33,64.02-1.14c20.85,11.94,31.13,30.82,30.52,54.71
			c-0.22,8.47-3.79,16.84-5.68,25.29c-0.45,2-1.06,4.58-0.23,6.17c17.08,32.55-2.22,71.32-39.76,79.31
			c-25.26,5.38-46.82-2.02-63.24-22.61c-0.47-0.59-0.94-1.19-1.37-1.82c-1.96-2.89-3.24-6.13,0.08-8.58c3.46-2.55,6.2-0.76,8.5,2.53
			c9.82,14.05,23.6,20.99,40.51,21.75c23.45,1.05,44.73-14.33,49.99-35.87c5.78-23.66-10.69-48.14-36.32-53.83
			c-15.26-3.39-29.33-0.37-42.25,8.3c-2.02,1.35-3.96,2.83-5.91,4.23c-5.77-7.06-5.43-9.45,1.71-13.92
			c25.2-15.78,54.56-13.41,76.8,6.19c0.69,0.61,1.44,1.14,2.73,2.17c6.7-16.4,5.97-31.91-2.71-46.65
			c-15.85-26.92-50.46-33.12-77.35-14.21c-13.79,9.7-22.58,23.32-29.52,38.29c-8.47,18.28-8.39,18.32-1.33,37.25
			c0.9,2.41,1.94,4.77,3.12,7.64c3.16-4.65,6.23-8.5,8.48-12.79c0.87-1.64,0.24-4.34-0.28-6.41c-5.51-21.6,5.54-46.78,25.73-58.39
			c20.2-11.61,45.94-8.66,61.52,7.07c0.93,0.94,1.82,1.93,2.64,2.97c2.15,2.72,2.75,5.68-0.2,8.04c-2.92,2.34-5.59,1.21-7.85-1.53
			c-14.19-17.2-37.71-15.44-51.78-6.91c-14.35,8.7-23.53,27.63-20.79,42.61c2.87,15.71,16.89,28.6,35.19,32.21
			c15.27,3.01,28.91-0.67,41-10.38c0.89-0.71,1.74-1.47,2.59-2.22c0.84-0.73,1.67-1.47,2.47-2.18c6.99,6.38,6.97,8.38,0.02,13.62
			c-24.85,18.74-57.85,16.31-79.64-5.89c-1.19-1.21-2.25-2.54-3.67-4.13c-7.29,9.82-10.77,20.5-11.97,31.97
			c-2.05,19.64,3.03,37.63,13.22,54.27c2.66,4.34,2.63,7.69-1.86,10.5c-0.76,0-1.52,0-2.28,0c-1.44-1.45-3.22-2.7-4.27-4.4
			c-11.87-19.29-18.27-40.2-14.79-62.81c2.03-13.2-5.28-22.9-8.77-34.21c-3.04,6.57-5.76,13.03-7.73,19.71
			c-1.07,3.64-1.56,7.74-1.09,11.48c3.27,25.83-2.94,49.13-17.96,70.22c-1.14,0-2.28,0-3.41,0c-4.89-3.08-4.19-6.68-1.53-11.03
			c10.32-16.85,15.16-35.09,12.82-54.89c-1.3-11.02-4.71-21.33-11.78-30.56c-1.21,1.28-2.1,2.23-2.99,3.17
			c-21.41,22.76-55.96,25.57-80.5,6.55c-6.7-5.19-6.68-7.64,0.22-13.52c1.13,0.95,2.29,1.91,3.42,2.9
			c15.31,13.31,32.56,16.29,51.4,9.17c16.37-6.18,26.59-19.84,26.69-34.8c0.11-16.72-11.07-33.63-26.29-40.03
			c-14.52-6.11-34.62-5.21-46.85,9.52c-1.32,1.59-5.87,2.29-7.7,1.25c-3.1-1.76-2.3-5.33-0.02-7.87c2.27-2.53,4.64-5.05,7.33-7.09
			c17.17-12.95,42.34-13.01,60.72-0.28c17.75,12.28,26.96,36.6,21.52,56.57c-0.47,1.72-1.06,4.03-0.31,5.33
			c2.48,4.36,5.54,8.38,8.88,13.28c1.63-4.32,2.56-8.23,4.47-11.6c5.47-9.68,4.14-18.74-0.43-28.45
			c-8.18-17.38-17.4-33.69-33.94-44.63c-32.11-21.25-73.64-5.48-81.3,31.04c-2.2,10.5-1.44,20.8,3.39,31.03
			c1.2-0.92,1.81-1.34,2.36-1.82c22.35-19.84,52.03-22.22,77.24-6.2c6.91,4.39,7.16,5.96,1.82,13.93c-1.65-1.19-3.28-2.4-4.94-3.56
			c-14.58-10.13-30.49-13.53-47.5-7.97c-17.46,5.71-29.47,17.31-32.74,35.89c-3.17,18.04,4.03,32.43,18.44,43.03
			c22.65,16.66,55.07,11.43,71.9-11.3c2.3-3.1,4.63-6.35,8.66-3.59c4.37,2.99,1.99,6.68-0.32,9.85
			c-6.15,8.45-13.97,14.88-23.48,19.25c-34.93,16.06-76.49-2.7-84.94-38.35c-0.65-2.74-1.21-5.51-1.81-8.26c0-2.66,0-5.31,0-7.97
			c2.43-7.23,4.9-14.45,7.26-21.71c0.31-0.96,0.29-2.19,0-3.17c-2.36-8.04-4.82-16.06-7.26-24.09
			C18.53,593.55,18.53,590.51,18.53,587.47z"/>
		<path class="st3" d="M164.14,472.47c9.7,3.54,18.53,8.13,24.34,17.34c11.52,18.28,5.47,42.57-13.45,53.08
			c-19.11,10.61-43.25,2.71-52.37-17.16c-9.13-19.89,0.59-43.42,21.05-50.98c1.9-0.7,3.77-1.52,5.65-2.28
			C154.28,472.47,159.21,472.47,164.14,472.47z M129.62,509.45c-0.35,14.91,11.6,27.47,26.45,27.78
			c15.13,0.32,27.79-11.86,28.02-26.95c0.22-14.66-12.12-27.3-26.9-27.54C142.32,482.5,129.98,494.46,129.62,509.45z"/>
		<path class="st3" d="M853.58,700.29c-19.42,0-38.84,0-58.26,0c-0.06-0.42-0.11-0.84-0.17-1.26c2.56-0.32,5.12-0.66,7.69-0.97
			c6.66-0.8,10.03-4.1,10.04-10.77c0.08-43.25,0.04-86.51,0.02-129.76c0-0.65-0.28-1.3-0.82-3.7
			c-19.01,50.05-37.43,98.54-55.85,147.03c-0.79,0.04-1.58,0.08-2.37,0.12c-20.69-46.1-41.39-92.19-62.75-139.79
			c-0.38,2.58-0.62,3.44-0.62,4.29c0.04,35.09,0.09,70.19,0.17,105.28c0,2.08,0.12,4.18,0.34,6.25
			c1.65,15.45,6.42,20.15,21.73,21.53c1.82,0.16,3.62,0.46,5.35,1.6c-19.45,0-38.9,0-58.35,0c-0.03-0.33-0.07-0.66-0.1-0.98
			c3.49-0.36,6.99-0.66,10.47-1.08c9.18-1.11,14.25-5.26,15.87-14.41c1.21-6.86,1.66-13.94,1.68-20.92
			c0.1-33.01-0.05-66.02-0.12-99.02c0-1.33-0.05-2.66-0.11-3.98c-0.69-14.87-3.96-18.19-18.66-18.98c-1-0.05-1.99-0.34-2.99-0.51
			c0.02-0.47,0.05-0.95,0.07-1.42c4.02,0,8.04,0,12.06,0c7.96,0,15.94,0.31,23.87-0.12c4.41-0.24,5.87,1.98,7.35,5.39
			c16.95,38.93,34,77.83,51.03,116.73c1.26,2.87,2.57,5.72,4.33,9.61c1.22-2.78,2.03-4.42,2.68-6.12
			c15.22-39.84,30.49-79.67,45.55-119.58c1.64-4.33,3.62-6.24,8.53-6.04c10.22,0.43,20.46,0.11,30.7,0.14
			c1.77,0,3.55,0.19,5.38,1.55c-2.63,0.2-5.28,0.31-7.9,0.63c-7.59,0.93-10.94,3.75-12.17,11.25c-0.85,5.21-1.12,10.56-1.13,15.85
			c-0.09,38.32-0.05,76.64-0.05,114.96c0,12.14,1.64,13.93,13.81,15.24c1.24,0.13,2.46,0.47,3.69,0.71
			C853.58,699.45,853.58,699.87,853.58,700.29z"/>
		<path class="st3" d="M644.48,580.1c-1.21-4.5-2.24-9.05-3.66-13.48c-4.77-14.89-14.79-24.08-30.54-24.75
			c-17.93-0.76-35.92-0.18-54.35-0.18c0,24.61,0,49.55,0,75.17c1.84,0.08,3.83,0.25,5.83,0.25c12.32,0.02,24.65,0.02,36.97,0.01
			c13.46-0.01,19.17-4.52,22.51-17.73c0.39-1.53,0.83-3.04,1.7-4.4c0,15.48,0,30.95,0,46.43c-0.55,0.08-1.1,0.16-1.65,0.24
			c-0.66-2.75-1.31-5.51-1.99-8.26c-2.25-9.08-6.05-13.2-15.13-13.51c-15.88-0.54-31.79-0.15-48.34-0.15
			c-0.12,1.92-0.34,3.72-0.34,5.53c-0.02,18.98-0.05,37.95,0,56.93c0.03,12.52,3.48,15.98,15.81,15.98
			c13.08,0,26.17,0.23,39.24-0.16c21.44-0.64,32.1-9.44,37.55-30.3c0.74-2.83,1.4-5.68,2.1-8.52c0.47,0.05,0.95,0.11,1.42,0.16
			c-0.64,13.44-1.28,26.87-1.94,40.77c-45.08,0-89.67,0-134.26,0c-0.05-0.38-0.11-0.76-0.16-1.15c2.64-0.32,5.27-0.7,7.91-0.95
			c5.66-0.53,9.13-3.51,9.98-9.14c0.48-3.17,0.71-6.41,0.71-9.62c0.05-39.85,0.03-79.7,0.03-119.55c0-1.52-0.01-3.04-0.1-4.55
			c-0.65-10.62-3.7-13.64-14.31-14.25c-1.36-0.08-2.72-0.34-4.08-1.7c1.74-0.13,3.48-0.37,5.23-0.38
			c39.05-0.02,78.11,0.06,117.16-0.12c4.71-0.02,6.17,1.44,6.29,6.07c0.31,11.72,1.13,23.43,1.74,35.15
			C645.36,580,644.92,580.05,644.48,580.1z"/>
		<path class="st3" d="M905.08,541.59c0,24.92,0,49.85,0,75.54c7.85,0,15.55,0,23.25,0c6.63,0,13.27,0.01,19.9,0
			c13.13-0.02,18.97-4.6,22.19-17.37c0.41-1.61,0.79-3.22,1.91-4.75c0,15.45,0,30.89,0,46.34c-0.57,0.11-1.14,0.22-1.7,0.33
			c-0.43-1.74-0.94-3.47-1.29-5.22c-2.51-12.73-7.21-16.83-20.1-16.95c-14.55-0.14-29.1-0.03-44.15-0.03
			c-0.14,2.37-0.34,4.19-0.35,6.01c-0.02,18.78-0.04,37.56-0.01,56.34c0.02,13.08,3.38,16.37,16.57,16.37
			c12.7-0.01,25.4,0.23,38.09-0.13c21.79-0.62,32.53-9.38,38.04-30.45c0.72-2.73,1.28-5.51,2.22-9.56c0.65,2.06,1.21,2.95,1.17,3.81
			c-0.51,11.37-1.18,22.73-1.63,34.09c-0.13,3.2-0.99,4.74-4.59,4.73c-42.45-0.1-84.9-0.06-127.35-0.09c-0.88,0-1.77-0.31-2.77-1.67
			c2.28-0.26,4.56-0.56,6.84-0.79c7.43-0.73,10.44-3.53,11.43-10.93c0.3-2.25,0.36-4.54,0.36-6.81
			c0.02-40.41,0.02-80.81,0.01-121.22c0-1.33-0.01-2.66-0.08-3.98c-0.6-10.59-3.71-13.66-14.29-14.26
			c-1.38-0.08-2.75-0.33-4.14-1.69c1.73-0.13,3.46-0.38,5.2-0.38c39.04-0.02,78.08,0.05,117.12-0.11c4.53-0.02,6.33,1.09,6.41,5.92
			c0.16,10.04,0.98,20.07,1.5,30.11c0.09,1.75,0.01,3.51-1.08,5.38c-1.01-3.91-1.94-7.85-3.05-11.73
			c-4.63-16.15-15.01-26.02-32.04-26.68C940.94,541.05,923.18,541.59,905.08,541.59z"/>
		<path class="st3" d="M1057.14,700.17c-16.61,0-33.22,0-49.83,0c-0.03-0.27-0.06-0.54-0.1-0.81c1.39-0.27,2.77-0.76,4.16-0.77
			c10.61-0.09,17.54-5.8,21.52-15c7.37-17.06,14.32-34.29,21.34-51.5c8.89-21.77,17.59-43.62,26.59-65.34
			c1.58-3.82,1.72-7.08,0.02-10.83c-2.33-5.16-4.17-10.54-6.68-16.99c7.37,0,14.09-0.29,20.73,0.24c1.37,0.11,2.89,3.12,3.69,5.07
			c13.66,33.14,27.19,66.33,40.81,99.48c4.18,10.17,8.27,20.4,12.86,30.38c5.87,12.77,11.86,25.73,29.21,25.97
			c-23.18,0-46.37,0-69.55,0c-0.08-0.29-0.15-0.58-0.23-0.87c1.42-0.22,2.84-0.47,4.27-0.65c1.5-0.19,3.02-0.27,4.52-0.48
			c7.59-1.08,10.84-4.39,9.55-11.81c-1.26-7.21-3.83-14.23-6.25-21.18c-0.4-1.15-2.95-2.21-4.51-2.22
			c-23.32-0.14-46.64-0.17-69.96,0.04c-1.7,0.02-4.33,1.66-4.92,3.17c-2.39,6.17-4.55,12.49-6.04,18.92
			c-1.95,8.42,0.98,12.1,9.5,13.14c3.12,0.38,6.24,0.71,9.36,1.07C1057.19,699.53,1057.16,699.85,1057.14,700.17z M1121.71,659.63
			c-12.33-31.09-24.38-61.48-37.04-93.41c-13.03,32.1-25.38,62.51-37.92,93.41C1072.1,659.63,1096.41,659.63,1121.71,659.63z"/>
		<path class="st3" d="M484.74,599.4c0,16.75,0,32.24,0,47.74c-0.53,0.04-1.07,0.08-1.6,0.12c-0.83-3.38-1.57-6.79-2.5-10.14
			c-1.66-5.99-5.33-10.76-11.64-10.93c-16.98-0.47-33.99-0.16-51.7-0.16c0,1.96,0,3.8,0,5.65c0,15.94-0.02,31.87,0.01,47.81
			c0.03,14.99,1.52,16.73,15.99,19.05c0.8,0.13,1.57,0.51,2.2,1.67c-19.35,0-38.69,0-58.04,0c-0.07-0.42-0.13-0.84-0.2-1.26
			c2.35-0.27,4.7-0.58,7.06-0.82c7.04-0.71,10.11-3.63,10.97-10.72c0.27-2.25,0.31-4.54,0.32-6.81c0.02-40.6,0.01-81.2,0.01-121.8
			c0-1.89,0-3.8-0.18-5.68c-0.79-8.34-3.86-11.39-12.16-12.11c-1.98-0.17-3.97-0.23-5.92-1.52c42.55,0,85.1,0,128.14,0
			c0.77,13.55,1.53,27,2.3,40.44c-0.46,0.08-0.92,0.15-1.38,0.23c-0.87-3.36-1.65-6.75-2.61-10.09
			c-5.44-18.89-14.64-27.34-34.21-28.51c-17.13-1.02-34.37-0.21-51.91-0.21c0,27.11,0,53.96,0,81.68c4.35,0,8.63,0,12.91,0
			c9.48,0,18.95,0.01,28.43,0c15.42-0.02,20.75-4.18,24.42-19C483.73,602.8,484.11,601.6,484.74,599.4z"/>
	</g>
</g>
</svg>
