<?xml version="1.0" encoding="utf-8"?>
<!-- Generator: Adobe Illustrator 24.0.1, SVG Export Plug-In . SVG Version: 6.00 Build 0)  -->
<svg version="1.1" id="Layer_1" xmlns="http://www.w3.org/2000/svg" xmlns:xlink="http://www.w3.org/1999/xlink" x="0px" y="0px"
	 viewBox="0 0 1200 1200" style="enable-background:new 0 0 1200 1200;" xml:space="preserve">
<style type="text/css">
	.st0{fill:#FFFFFF;}
</style>
<g>
	<path class="st0" d="M32.3,599.4c-1.38-79.35,65.62-149.53,150.79-148.81c83.19,0.7,149.26,67.09,148.97,150.81
		c-0.28,82.18-67.73,148.31-150.98,148.02C98.22,749.13,32.11,682.47,32.3,599.4z M274.2,692.08c0-61.84,0-122.72,0-183.55
		c-61.8,0-122.89,0-183.95,0c0,61.52,0,122.41,0,183.55C151.83,692.08,212.69,692.08,274.2,692.08z"/>
	<path class="st0" d="M573.04,577.88c0.42-2.98,0.77-5.48,1.2-8.57c7.2,0,14.47,0,22.89,0c0,11.35,0,22.58,0,33.8
		c0,14.9,0.29,29.8-0.08,44.69c-0.4,16.06-6.46,29.02-22.32,35.48c-15.86,6.45-39.19,2.55-49.26-8.93
		c-4.08-4.65-6.28-10.93-10.06-17.8c12.28,0.32,21.71-2.21,31.07,6.38c9.81,8.99,24.94,1.4,26.79-11.89
		c0.57-4.07,0.09-8.28,0.09-11.58c-7.27,2.79-14.51,7.05-22.22,8.22c-13.89,2.1-26.1-5.19-32.22-17.75
		c-6.45-13.25-6.91-27.12-1.52-40.73c8.88-22.41,34.03-28.31,52.8-12.79C570.79,576.9,571.61,577.15,573.04,577.88z M537.95,607.58
		c-0.09,12,7.23,20.33,17.8,20.28c10.1-0.05,17.65-8.29,17.86-19.53c0.22-11.61-7.45-20.17-18.06-20.15
		C545.08,588.19,538.03,595.97,537.95,607.58z"/>
	<path class="st0" d="M1085.54,569.04c7.68,0,14.79,0,22.25,0c0.28,2.86,0.53,5.45,0.78,8.05c0.59,0.15,1.33,0.57,1.58,0.38
		c24.01-18.96,52.69-7.93,56.99,22.11c0.75,5.25,0.8,10.79,0.03,16.03c-2.01,13.74-8.22,25.09-21.94,30.24
		c-13.11,4.92-25.19,2.56-36.64-9.06c0,16.79,0,31.96,0,47.64c-8.22,0-15.26,0-23.05,0C1085.54,646.32,1085.54,608.1,1085.54,569.04
		z M1108.16,607.66c-0.1,11.92,7.14,20.19,17.69,20.2c10.34,0.01,18.14-8.64,18.11-20.09c-0.03-11.32-7.21-19.33-17.49-19.54
		C1115.51,588,1108.26,595.7,1108.16,607.66z"/>
	<path class="st0" d="M984.31,548.63c7.66,0,14.71,0,23.09,0c0,12.74-0.01,25.1,0.01,37.45c0.01,7.73-0.18,15.48,0.18,23.2
		c0.5,10.83,5.85,16.37,15.64,16.87c11.98,0.61,18.84-4.11,19.53-15.69c0.96-16.01,0.49-32.1,0.61-48.15
		c0.03-4.39,0.01-8.77,0.01-13.62c8.05,0,15.1,0,23.47,0c0,4.03,0.07,7.74-0.01,11.45c-0.41,19.3,0.61,38.77-1.68,57.85
		c-2.41,20-20.33,30.88-44.14,29.81c-20.45-0.92-35.39-13.52-36.43-33.23C983.43,592.96,984.31,571.26,984.31,548.63z"/>
	<path class="st0" d="M638.92,647.11c-8.32,0-15.39,0-23.01,0c0-34.43,0-68.53,0-103.37c7.31,0,14.56,0,22.98,0
		c0,11.12,0,22.21,0,32.44c7.87-2.83,14.76-6.66,22.04-7.65c16.9-2.3,30.13,6.94,31.74,23.87c1.7,17.89,0.38,36.07,0.38,54.59
		c-7.08,0-14.12,0-22.42,0c0-13.99,0.24-27.87-0.07-41.74c-0.3-13.71-10.4-21.26-21.82-16.68c-7.92,3.18-9.67,10.05-9.77,17.52
		C638.8,619.45,638.92,632.83,638.92,647.11z"/>
	<path class="st0" d="M842.37,613.46c-17.37,0-34.91,0-55.9,0c4.06,5.87,5.98,11.48,9.76,13.33c4.17,2.04,12.14,2.85,14.8,0.34
		c9.31-8.78,19.68-3.58,29.7-5.6c-3.18,19.02-23.63,30.12-45.78,25.85c-21.93-4.22-34.71-27.17-28.69-51.54
		c5.28-21.38,27.57-32.99,51.02-26.58C836.27,574.46,848.05,594.81,842.37,613.46z M789.8,600.08c9.81,0,19.61,0,29.52,0
		c-1.6-9.93-6.51-14-15.67-13.63C795.12,586.79,790.59,591.24,789.8,600.08z"/>
	<path class="st0" d="M881.03,647.22c-8.35,0-15.18,0-22.74,0c0-25.88,0-51.57,0-77.88c7.25,0,14.56,0,22.19,0
		c0.34,2.52,0.68,5.05,0.97,7.18c6.43-2.75,12.31-6.61,18.67-7.73c19.81-3.48,34.02,7.44,35.67,27.76
		c1.11,13.61,0.33,27.37,0.39,41.06c0.01,2.92,0,5.83,0,9.28c-7.99,0-15.25,0-23.46,0c0-13.66,0.3-26.98-0.17-40.28
		c-0.16-4.55-0.89-10.49-3.79-13.16c-3.64-3.34-9.77-5.34-14.86-5.41c-6.48-0.09-11.24,4.69-11.84,11.33
		c-0.87,9.75-0.79,19.59-1,29.39C880.92,634.66,881.03,640.55,881.03,647.22z"/>
	<path class="st0" d="M413.6,566.86c-9.69,0-17.38,0-25.69,0c0-6.21,0-11.95,0-18.11c25.16,0,50.04,0,75.45,0
		c0,6.06,0,11.55,0,18.03c-8.4,0-16.58,0-25.76,0c0,27.21,0,53.49,0,80.16c-8.31,0-15.59,0-24.01,0
		C413.6,620.16,413.6,593.87,413.6,566.86z"/>
	<path class="st0" d="M715.63,588.89c-3.51-0.48-6.07-0.84-9-1.24c0-6.26,0-12.08,0-18.45c2.85-0.3,5.4-0.58,8.65-0.92
		c0-6.13,0-11.97,0-18.47c8.01,0,15.3,0,23.45,0c0,5.7,0,11.51,0,18.48c5.65,0.27,10.53,0.5,15.93,0.76c0,6.15,0,11.98,0,18.72
		c-4.74,0.32-9.64,0.65-15.49,1.05c0,10.69-0.49,21.07,0.34,31.34c0.21,2.63,4.3,5.49,7.23,7.17c2.02,1.16,5.11,0.49,8.11,0.67
		c0,6.32,0,12.19,0,18.05c-24.42,6.48-39.15-4.65-39.22-29.6C715.61,607.54,715.63,598.63,715.63,588.89z"/>
	<path class="st0" d="M499.74,647.06c-7.65,0-14.71,0-22.29,0c0-26.07,0-51.76,0-77.88c7.48,0,14.54,0,22.29,0
		C499.74,594.85,499.74,620.54,499.74,647.06z"/>
	<path class="st0" d="M488.22,534.52c8.41-0.11,14.1,4.87,14.14,12.39c0.04,7.32-6.06,12.93-13.97,12.85
		c-7.59-0.08-13.42-5.28-13.69-12.23C474.41,539.87,479.85,534.63,488.22,534.52z"/>
	<path class="st0" d="M110.04,529.79c20.83,0,40.78,0,61.43,0c0,47.14,0,93.99,0,141.43c-20.36,0-40.54,0-61.43,0
		C110.04,624.25,110.04,577.42,110.04,529.79z"/>
	<path class="st0" d="M190.94,529.89c20.87,0,41,0,61.77,0c0,20.67,0,40.95,0,61.76c-20.58,0-40.93,0-61.77,0
		C190.94,571.1,190.94,551.03,190.94,529.89z"/>
	<path class="st0" d="M191.19,610.2c20.48,0,40.61,0,61.45,0c0,20.41,0,40.66,0,61.42c-20.48,0-40.59,0-61.45,0
		C191.19,651.4,191.19,631.39,191.19,610.2z"/>
</g>
</svg>
