<svg xmlns="http://www.w3.org/2000/svg" version="1.1" xmlns:xlink="http://www.w3.org/1999/xlink" xmlns:svgjs="http://svgjs.dev/svgjs" viewBox="0 0 800 800"><defs><linearGradient x1="50%" y1="0%" x2="50%" y2="100%" id="wwwhirl-grad"><stop stop-color="hsl(180, 69%, 40%)" stop-opacity="1" offset="45%"></stop><stop stop-color="hsl(180, 69%, 60%)" stop-opacity="1" offset="100%"></stop></linearGradient></defs><g stroke-width="2" stroke="url(#wwwhirl-grad)" fill="none" stroke-linecap="round"><path d="M-302 424.40326299667356C-228.87499999999997 388.75482549667356 -97.25000000000006 235.00951299667358 49 253.29076299667358C195.25 271.5720129966736 253.75 519.9227942466737 400 512.1532629966736C546.25 504.3837317466735 604.75 200.9149817466736 751 215.9970129966736C897.25 231.0790442466736 1028.875 507.7657629966736 1102 584.5470129966736 " transform="rotate(0, 400, 400)"></path><path d="M-288.5 423.93394072055816C-216.78124999999997 388.97105009555816 -87.68750000000006 238.18237822055818 55.75 256.1120657205582C199.1875 274.0417532205582 256.5625 517.6165579080582 400 509.9964407205581C543.4375 502.3763235330581 600.8125 204.74351103305816 744.25 219.53550322055816C887.6875 234.32749540805816 1016.78125 505.69331572055813 1088.5 580.9980032205581 " transform="rotate(0, 400, 400)"></path><path d="M-275 423.4646031856537C-204.68749999999997 389.1872594356537 -78.12500000000006 241.3552281856537 62.5 258.9333531856537C203.125 276.5114781856537 259.375 515.3103063106537 400 507.8396031856537C540.6249999999999 500.3689000606537 596.875 208.5720250606537 737.5 223.0739781856537C878.125 237.5759313106537 1004.6875 503.6208531856537 1075 577.4489781856537 " transform="rotate(0, 400, 400)"></path><path d="M-261.5 422.9953572034836C-192.59374999999997 389.40356032848354 -68.56250000000006 244.52816970348357 69.25 261.75473220348357C207.0625 278.98129470348357 262.1875 513.0041462659835 400 505.6828572034836C537.8124999999999 498.36156814098354 592.9375 212.4006306409836 730.75 226.6125447034836C868.5625 240.8244587659836 992.59375 501.54848220348356 1061.5 573.9000447034836 " transform="rotate(0, 400, 400)"></path><path d="M-248 422.5260654449463C-180.49999999999997 389.6198154449463 -59.00000000000006 247.70106544494627 76 264.57606544494627C211 281.45106544494627 265 510.69794044494637 400 503.5260654449463C534.9999999999999 496.35419044494625 589 216.22919044494628 724 230.15106544494628C859 244.07294044494628 980.5 499.4760654449463 1048 570.3510654449462 " transform="rotate(0, 400, 400)"></path><path d="M-234.5 422.05678894519804C-168.40624999999997 389.83608582019804 -49.43750000000006 250.87397644519805 82.75 267.3974139451981C214.9375 283.9208514451981 267.8125 508.3917498826981 400 501.3692889451981C532.1874999999999 494.34682800769804 585.0625 220.05776550769806 717.25 233.68960144519806C849.4375 247.32143738269806 968.40625 497.40366394519805 1034.5 566.8021014451981 " transform="rotate(0, 400, 400)"></path><path d="M-221 421.5874819278717C-156.31249999999997 390.0523256778717 -39.87500000000006 254.04685692787172 89.5 270.2187319278717C218.875 286.3906069278717 270.625 506.0855288028717 400 499.2124819278717C529.3749999999999 492.33943505287164 581.1250000000001 223.8863100528717 710.5 237.2281069278717C839.875 250.5699038028717 956.3125 495.33123192787167 1021 563.2531069278716 " transform="rotate(0, 400, 400)"></path><path d="M-207.5 421.11822068691254C-144.21874999999997 390.26861131191254 -30.312500000000057 257.21978318691254 96.25 273.04009568691254C222.8125 288.86040818691254 273.4375 503.7793534994126 400 497.05572068691254C526.5624999999999 490.33208787441254 577.1875000000001 227.71490037441254 703.75 240.76665818691254C830.3125 253.81841599941254 944.21875 493.25884568691254 1007.5 559.7041581869125 " transform="rotate(0, 400, 400)"></path><path d="M-194 420.648883152008C-132.12499999999997 390.484820652008 -20.750000000000057 260.39263315200805 103 275.86138315200805C226.75 291.33013315200805 276.25 501.47310190200807 400 494.898883152008C523.7499999999999 488.324664402008 573.2500000000001 231.54341440200807 697 244.30513315200807C820.75 257.06685190200807 932.125 491.18638315200803 994 556.155133152008 " transform="rotate(0, 400, 400)"></path><path d="M-180.5 420.1795913934708C-120.03124999999997 390.7010757684708 -11.187500000000057 263.56552889347074 109.75 278.68271639347074C230.6875 293.79990389347074 279.0625 499.1668960809708 400 492.7420913934708C520.9374999999999 486.31728670597073 569.3125000000001 235.37197420597076 690.25 247.84365389347076C811.1875 260.3153335809708 920.03125 489.1139663934708 980.5 552.6061538934707 " transform="rotate(0, 400, 400)"></path><path d="M-167 419.71029963493345C-107.9375 390.91733088493345 -1.625 266.7384246349335 116.5 281.5040496349335C234.625 296.2696746349335 281.875 496.8606902599335 400 490.58529963493345C518.1249999999999 484.30990900993345 565.3750000000001 239.20053400993348 683.5 251.38217463493348C801.625 263.56381525993345 907.9375 487.04154963493346 967 549.0571746349335 " transform="rotate(0, 400, 400)"></path><path d="M-153.5 419.2410383939743C-95.84375 391.1336165189743 7.9375 269.9113508939743 123.25 284.3254133939743C238.5625 298.7394758939743 284.6875 494.55451495647435 400 488.4285383939743C515.3124999999999 482.30256183147424 561.4375000000001 243.0291243314743 676.75 254.9207258939743C792.0625 266.8123274564743 895.84375 484.9691633939743 953.5 545.5082258939742 " transform="rotate(0, 400, 400)"></path><path d="M-140 418.7717618942261C-83.75 391.3498868942261 17.5 273.0842618942261 130 287.1467618942261C242.5 301.2092618942261 287.5 492.24832439422613 400 486.2717618942261C512.4999999999999 480.295199394226 557.5000000000001 246.85769939422607 670 258.4592618942261C782.5 270.0608243942261 883.75 482.8967618942261 940 541.9592618942261 " transform="rotate(0, 400, 400)"></path><path d="M-126.5 418.3024548768997C-71.65625 391.5661267518997 27.0625 276.2571423768997 136.75 289.9680798768997C246.4375 303.6790173768997 290.3125 489.94210331439973 400 484.1149548768997C509.6874999999999 478.2878064393997 553.5625000000001 250.68624393939973 663.25 261.99776737689973C772.9375 273.30929081439973 871.65625 480.8243298768997 926.5 538.4102673768997 " transform="rotate(0, 400, 400)"></path><path d="M-113 417.8331326007843C-59.5625 391.7823513507843 36.625 279.4300076007843 143.5 292.7893826007843C250.375 306.1487576007843 293.125 487.6358669757843 400 481.9581326007843C506.8749999999999 476.28039822578427 549.6250000000001 254.5147732257843 656.5 265.5362576007843C763.375 276.5577419757843 859.5625 478.7518826007843 913 534.8612576007843 " transform="rotate(0, 400, 400)"></path><path d="M-99.5 417.3638713598251C-47.46875 391.9986369848251 46.1875 282.60293385982516 150.25 295.61074635982516C254.3125 308.61855885982516 295.9375 485.32969167232517 400 479.8013713598251C504.0624999999999 474.2730510473251 545.6875000000001 258.3433635473251 649.75 269.0748088598251C753.8125 279.8062541723251 847.46875 476.6794963598251 899.5 531.3123088598252 " transform="rotate(0, 400, 400)"></path><path d="M-86 416.8945261955261C-35.375 392.2148386955261 55.75 285.77577619552613 157 298.43202619552613C258.25000000000006 311.08827619552613 298.75 483.02343244552617 400 477.64452619552617C501.2499999999999 472.26561994552605 541.7500000000001 262.1718699455261 643 272.6132761955261C744.25 283.0546824455261 835.375 474.60702619552615 886 527.7632761955261 " transform="rotate(0, 400, 400)"></path><path d="M-72.5 416.4252496957779C-23.28125 392.4311090707779 65.3125 288.9486871957779 163.75 301.2533746957779C262.18750000000006 313.5580621957779 301.5625 480.7172418832779 400 475.4877496957779C498.4374999999999 470.2582575082779 537.8125000000001 266.0004450082779 636.25 276.1518121957779C734.6874999999999 286.3031793832779 823.28125 472.5346246957779 872.5 524.2143121957779 " transform="rotate(0, 400, 400)"></path><path d="M-59 415.95595793724056C-11.1875 392.6473641872406 74.875 292.1215829372406 170.5 304.0747079372406C266.12500000000006 316.0278329372406 304.375 478.4110360622406 400 473.33095793724056C495.6249999999999 468.25087981224056 533.8750000000001 269.8290048122406 629.5 279.6903329372406C725.1249999999999 289.5516610622406 811.1875 470.4622079372406 859 520.6653329372406 " transform="rotate(0, 400, 400)"></path><path d="M-45.5 415.486704325676C0.90625 392.863657450676 84.4375 295.29451682567594 177.25 306.89607932567594C270.06250000000006 318.49764182567594 307.1875 476.104868388176 400 471.174204325676C492.8124999999999 466.2435402631759 529.9375000000001 273.657602763176 622.75 283.228891825676C715.5624999999999 292.800180888176 799.09375 468.3898293256759 845.5 517.1163918256759 " transform="rotate(0, 400, 400)"></path><path d="M-32 415.01741256713865C13 393.07991256713865 94 298.4674125671387 184 309.7174125671387C274.00000000000006 320.9674125671387 309.99999999999994 473.79866256713865 400 469.01741256713865C489.9999999999999 464.23616256713865 526.0000000000001 277.48616256713865 616 286.76741256713865C705.9999999999999 296.04866256713865 786.9999999999999 466.31741256713866 832 513.5674125671387 " transform="rotate(0, 400, 400)"></path><path d="M-18.5 414.5480979204178C25.09375 393.2961447954178 103.5625 301.6402854204178 190.75 312.5387229204178C277.93750000000006 323.4371604204178 312.81249999999994 471.49243385791783 400 466.8605979204178C487.1874999999999 462.2287619829178 522.0625000000001 281.3146994829178 609.25 290.3059104204178C696.4374999999999 299.2971213579178 774.9062499999999 464.2449729204178 818.5 510.0184104204178 " transform="rotate(0, 400, 400)"></path><path d="M-5 414.07879853248596C37.1875 393.51239228248596 113.125 304.81317353248596 197.5 315.36004853248596C281.87500000000006 325.90692353248596 315.62499999999994 469.18622040748596 400 464.70379853248596C484.3749999999999 460.22137665748596 518.1250000000001 285.14325165748596 602.5 293.84442353248596C686.8749999999999 302.54559540748596 762.8124999999999 462.17254853248596 805 506.46942353248596 " transform="rotate(0, 400, 400)"></path><path d="M8.5 413.60951440334316C49.28125 393.7286550283432 122.6875 307.9860769033432 204.25 318.1813894033432C285.81250000000006 328.3767019033432 318.43749999999994 466.8800222158432 400 462.54701440334316C481.5624999999999 458.21400659084316 514.1875000000001 288.9718190908432 595.75 297.3829519033432C677.3124999999999 305.7940847158432 750.7187499999999 460.1001394033432 791.5 502.9204519033432 " transform="rotate(0, 400, 400)"></path><path d="M22 413.1401844978332C61.375 393.9448719978333 132.25 311.15893449783323 211 321.00268449783323C289.75 330.84643449783323 321.25 464.5737782478333 400 460.3901844978333C478.75 456.2065907478332 510.25 292.8003407478333 589 300.9214344978333C667.75 309.0425282478333 738.625 458.0276844978332 778 499.3714344978332 " transform="rotate(0, 400, 400)"></path><path d="M35.5 412.67091562747953C73.46875 394.16115000247953 141.8125 314.3318531274796 217.75 323.8240406274796C293.6875 333.3162281274796 324.0625 462.26759531497953 400 458.23341562747953C475.9375 454.19923593997953 506.3125 296.62892343997953 582.25 304.45997812747953C658.1875 312.29103281497953 726.53125 455.95529062747954 764.5 495.82247812747954 " transform="rotate(0, 400, 400)"></path><path d="M49 412.20162386894225C85.5625 394.37740511894225 151.375 317.5047488689423 224.5 326.6453738689423C297.625 335.7859988689423 326.875 459.9613894939423 400 456.07662386894225C473.125 452.1918582439422 502.375 300.45748324394225 575.5 307.99849886894225C648.625 315.53951449394225 714.4375 453.8828738689423 751 492.2734988689423 " transform="rotate(0, 400, 400)"></path><path d="M62.5 411.73233211040497C97.65625 394.59366023540497 160.9375 320.67764461040497 231.25 329.46670711040497C301.5625 338.25576961040497 329.6875 457.65518367290497 400 453.91983211040497C470.3125 450.18448054790497 498.4375 304.28604304790497 568.75 311.53701961040497C639.0625 318.78799617290497 702.34375 451.81045711040497 737.5 488.72451961040497 " transform="rotate(0, 400, 400)"></path><path d="M76 411.26303272247316C109.75 394.80990772247316 170.49999999999997 323.85053272247313 238 332.28803272247313C305.5 340.72553272247313 332.5 455.3489702224732 400 451.76303272247316C467.5 448.1770952224731 494.5 308.11459522247316 562 315.07553272247316C629.5 322.03647022247316 690.25 449.7380327224731 724 485.1755327224731 " transform="rotate(0, 400, 400)"></path><path d="M89.5 410.79373333454134C121.84375 395.02615520954134 180.06249999999997 327.0234208345413 244.75 335.1093583345413C309.4375 343.1952958345413 335.3125 453.04275677204134 400 449.60623333454134C464.6875 446.1697098970413 490.5625 311.94314739704134 555.25 318.61404583454134C619.9375 325.28494427204134 678.15625 447.6656083345413 710.5 481.6265458345413 " transform="rotate(0, 400, 400)"></path><path d="M103 410.32445683479307C133.9375 395.24242558479307 189.62499999999997 330.1963318347931 251.5 337.9307068347931C313.375 345.6650818347931 338.125 450.73656620979307 400 447.44945683479307C461.875 444.16234745979307 486.625 315.77172245979307 548.5 322.15258183479307C610.375 328.53344120979307 666.0625 445.5932068347931 697 478.0775818347931 " transform="rotate(0, 400, 400)"></path><path d="M116.5 409.8551498174667C146.03125 395.4586654424667 199.1875 333.36921231746675 258.25 340.75202481746675C317.3125 348.13483731746675 340.9375 448.4303451299668 400 445.2926498174667C459.06249999999994 442.1549545049667 482.6875 319.6002670049667 541.75 325.6910873174667C600.8125 331.7819076299667 653.96875 443.52077481746676 683.5 474.52858731746676 " transform="rotate(0, 400, 400)"></path><path d="M130 409.3858733177185C158.125 395.6749358177185 208.75 336.5421233177185 265 343.5733733177185C321.25 350.6046233177185 343.75 446.1241545677185 400 443.1358733177185C456.24999999999994 440.1475920677185 478.75000000000006 323.4288420677185 535 329.2296233177185C591.25 335.0304045677185 641.875 441.4483733177185 670 470.9796233177185 " transform="rotate(0, 400, 400)"></path><path d="M143.5 408.9165815591812C170.21875 395.8911909341812 218.3125 339.7150190591812 271.75 346.3947065591812C325.1875 353.0743940591812 346.5625 443.8179487466812 400 440.9790815591812C453.43749999999994 438.14021437168117 474.81250000000006 327.2574018716812 528.25 332.7681440591812C581.6875 338.2788862466812 629.78125 439.3759565591812 656.5 467.4306440591812 " transform="rotate(0, 400, 400)"></path><path d="M157 408.44727835655215C182.3125 396.10743460655215 227.875 342.8879033565521 278.5 349.2160283565521C329.125 355.5441533565521 349.375 441.51173148155215 400 438.82227835655215C450.62499999999994 436.1328252315521 470.87500000000006 331.08595023155215 521.5 336.30665335655215C572.125 341.52735648155215 617.6875 437.30352835655214 643 463.88165335655214 " transform="rotate(0, 400, 400)"></path><path d="M170.5 407.97797133922575C194.40625 396.32367446422575 237.4375 346.0607838392258 285.25 352.0373463392258C333.0625 358.0139088392258 352.1875 439.20551040172575 400 436.66547133922575C447.81249999999994 434.12543227672575 466.93750000000006 334.91449477672575 514.75 339.84515883922575C562.5625 344.77582290172575 605.59375 435.23109633922576 629.5 460.33265883922576 " transform="rotate(0, 400, 400)"></path><path d="M184 407.50869102478026C206.5 396.53994102478026 247 349.2336910247803 292 354.8586910247803C337 360.4836910247803 355 436.89931602478026 400 434.50869102478026C444.99999999999994 432.11806602478026 463.00000000000006 338.74306602478026 508 343.38369102478026C553 348.02431602478026 593.5 433.1586910247803 616 456.7836910247803 " transform="rotate(0, 400, 400)"></path><path d="M197.5 407.03941452503204C218.59375 396.75621140003204 256.5625 352.40660202503204 298.75 357.68003952503204C340.9375 362.95347702503204 357.8125 434.59312546253204 400 432.35191452503204C442.18749999999994 430.11070358753204 459.06250000000006 342.57164108753204 501.25 346.92222702503204C543.4375 351.27281296253204 581.40625 431.08628952503204 602.5 453.23472702503204 " transform="rotate(0, 400, 400)"></path><path d="M211 406.5701075077057C230.6875 396.9724512577057 266.125 355.5794825077057 305.5 360.5013575077057C344.875 365.4232325077057 360.625 432.2869043827057 400 430.1951075077057C439.375 428.10331063270564 455.125 346.4001856327057 494.5 350.4607325077057C533.875 354.5212793827057 569.3125 429.01385750770567 589 449.68573250770567 " transform="rotate(0, 400, 400)"></path><path d="M224.5 406.10082337856295C242.78125 397.18871400356295 275.6875 358.7523858785629 312.25 363.3226983785629C348.8125 367.8930108785629 363.4375 429.98070619106295 400 428.03832337856295C436.5625 426.0959405660629 451.1875 350.22875306606295 487.75 353.99926087856295C524.3125 357.76976869106295 557.21875 426.94144837856294 575.5 446.13676087856294 " transform="rotate(0, 400, 400)"></path><path d="M238 405.63151636123655C254.875 397.40495386123655 285.25 361.9252663612366 319 366.1440163612366C352.75 370.3627663612366 366.25 427.6744851112366 400 425.88151636123655C433.75 424.08854761123655 447.25 354.05729761123655 481 357.53776636123655C514.75 361.01823511123655 545.125 424.86901636123656 562 442.58776636123656 " transform="rotate(0, 400, 400)"></path><path d="M251.5 405.16222841739653C266.96875 397.62121279239653 294.8125 365.09816591739656 325.75 368.96535341739656C356.6875 372.83254091739656 369.0625 425.36828310489653 400 423.72472841739653C430.9375 422.08117372989653 443.3125 357.88586122989653 474.25 361.07629091739653C505.1875 364.26672060489653 533.03125 422.79660341739657 548.5 439.03879091739657 " transform="rotate(0, 400, 400)"></path><path d="M265 404.692932844162C279.0625 397.837464094162 304.375 368.271057844162 332.5 371.786682844162C360.625 375.302307844162 371.875 423.062073469162 400 421.567932844162C428.125 420.073792219162 439.375 361.714417219162 467.5 364.614807844162C495.625 367.515198469162 520.9375 420.724182844162 535 435.489807844162 " transform="rotate(0, 400, 400)"></path><path d="M278.5 404.2236410856247C291.15625 398.0537192106247 313.9375 371.4439535856247 339.25 374.6080160856247C364.5625 377.7720785856247 374.6875 420.7558676481247 400 419.4111410856247C425.3125 418.0664145231247 435.4375 365.5429770231247 460.75 368.1533285856247C486.0625 370.7636801481247 508.84375 418.6517660856247 521.5 431.9408285856247 " transform="rotate(0, 400, 400)"></path><path d="M292 403.75434551239016C303.25 398.26997051239016 323.5 374.6168455123901 346 377.4293455123901C368.5 380.2418455123901 377.5 418.44965801239016 400 417.25434551239016C422.5 416.05903301239016 431.5 369.37153301239016 454 371.69184551239016C476.5 374.01215801239016 496.75 416.57934551239015 508 428.39184551239015 " transform="rotate(0, 400, 400)"></path><path d="M305.5 403.28505566120145C315.34375 398.48622753620145 333.0625 377.7897431612015 352.75 380.2506806612015C372.4375 382.7116181612015 380.3125 416.14345409870145 400 415.09755566120145C419.6875 414.05165722370145 427.5625 373.20009472370145 447.25 375.23036816120145C466.9375 377.26064159870145 484.65625 414.50693066120147 494.5 424.84286816120147 " transform="rotate(0, 400, 400)"></path><path d="M319 402.8157581806183C327.4375 398.7024769306183 342.625 380.9626331806183 359.5 383.0720081806183C376.375 385.1813831806183 383.125 413.8372425556183 400 412.9407581806183C416.875 412.0442738056183 423.625 377.0286488056183 440.5 378.7688831806183C457.375 380.5091175556183 472.5625 412.4345081806183 481 421.2938831806183 " transform="rotate(0, 400, 400)"></path><path d="M332.5 402.346466422081C339.53125 398.918732047081 352.1875 384.135528922081 366.25 385.893341422081C380.3125 387.651153922081 385.9375 411.531036734581 400 410.783966422081C414.0625 410.036896109581 419.6875 380.857208609581 433.75 382.307403922081C447.8125 383.757599234581 460.46875 410.362091422081 467.5 417.744903922081 " transform="rotate(0, 400, 400)"></path><path d="M346 401.8771737098694C351.625 399.1349862098694 361.75 387.3084237098694 373 388.7146737098694C384.25 390.1209237098694 388.75 409.2248299598694 400 408.6271737098694C411.25 408.0295174598694 415.75 384.6857674598694 427 385.8459237098694C438.25 387.0060799598694 448.375 408.28967370986936 454 414.19592370986936 " transform="rotate(0, 400, 400)"></path><path d="M359.5 401.40787909030917C363.71875 399.35123846530917 371.3125 390.4813165903091 379.75 391.5360040903091C388.1875 392.5906915903091 391.5625 406.91862127780917 400 406.47037909030917C408.4375 406.02213690280917 411.8125 388.51432440280917 420.25 389.38444159030917C428.6875 390.25455877780917 436.28125 406.21725409030915 440.5 410.64694159030915 " transform="rotate(0, 400, 400)"></path><path d="M373 400.9385873317718C375.8125 399.5674935817718 380.875 393.6542123317719 386.5 394.3573373317719C392.125 395.0604623317719 394.375 404.6124154567718 400 404.3135873317718C405.625 404.0147592067718 407.875 392.3428842067718 413.5 392.9229623317718C419.125 393.5030404567718 424.1875 404.14483733177184 427 407.09796233177184 " transform="rotate(0, 400, 400)"></path><path d="M386.5 400.4692917585373C387.90625 399.7837448835373 390.4375 396.8271042585373 393.25 397.1786667585373C396.0625 397.5302292585373 397.1875 402.3062058210373 400 402.1567917585373C402.8125 402.0073776960373 403.9375 396.1714401960373 406.75 396.4614792585373C409.5625 396.7515183210373 412.09375 402.0724167585373 413.5 403.5489792585373 " transform="rotate(0, 400, 400)"></path></g></svg>