<svg xmlns="http://www.w3.org/2000/svg" version="1.1" xmlns:xlink="http://www.w3.org/1999/xlink" xmlns:svgjs="http://svgjs.dev/svgjs" viewBox="0 0 800 800"><defs><linearGradient x1="50%" y1="0%" x2="50%" y2="100%" id="uundulate-grad"><stop stop-color="hsl(180, 69%, 40%)" stop-opacity="1" offset="45%"></stop><stop stop-color="hsl(180, 69%, 60%)" stop-opacity="1" offset="100%"></stop></linearGradient></defs><g stroke-width="2" stroke="url(#uundulate-grad)" fill="none"><path d="M671.8197607828232 414.77397110708444C688.9874010007479 534.1507520646303 634.1215233083674 628.915336664681 568.0690786287494 674.4706894370182C502.01663394913135 720.0260422093553 446.4393821726035 701.4323813145635 354.7680263206562 633.4396644143031C263.0966704687089 565.4469475140427 100.7764915264745 458.93429906024846 128.04657053940275 348.10564831576835C155.31664955233094 237.27699757128823 372.37832428199863 87.57290692594103 485.6644055827114 101.46214084079855C598.9504868834241 115.35137475565602 654.6521205648984 295.3971901495387 671.8197607828232 414.77397110708444C688.9874010007479 534.1507520646303 634.1215233083674 628.915336664681 568.0690786287494 674.4706894370182 "></path><path d="M659.4643448541295 414.10243112734133C675.8516377894213 528.052994768635 623.4796636285126 618.5100982505016 560.4296027979683 661.9947531695507C497.37954196742373 705.4794080885997 444.32852890801075 687.7309135981167 356.82405286751566 622.8287747387772C269.31957682702046 557.9266358794378 114.3775878367058 456.2554714462706 140.40811780359178 350.4644866447213C166.43864777047781 244.67350184317218 373.6338827397061 101.77414259079524 481.7705967085683 115.03204769134106C589.9073106774304 128.2899527918869 643.0770519188377 300.15186748604754 659.4643448541295 414.10243112734133C675.8516377894213 528.052994768635 623.4796636285126 618.5100982505016 560.4296027979683 661.9947531695507 "></path><path d="M647.1088678902796 413.43089114759823C662.7158135429383 521.9552374726397 612.8377429135016 608.1048598363222 552.7900659320308 649.5188169020834C492.74238895055987 690.9327739678444 442.2176146082618 674.02944588167 358.88001837921877 612.2178850632514C275.54242215017575 550.4063242448328 127.97862311178085 453.5766438322926 152.7696040326246 352.8233249736744C177.56058495346844 252.07000611505612 374.88938016225734 115.9753782556495 477.8767267992689 128.60195454188363C580.8640734362805 141.2285308281177 631.5019222376206 304.9065448225565 647.1088678902796 413.43089114759823C662.7158135429383 521.9552374726397 612.8377429135016 608.1048598363222 552.7900659320308 649.5188169020834 "></path><path d="M634.7534519615859 412.7593206502768C649.5800503316118 515.8574496590664 602.1958832336468 597.6995909045647 545.1505901012495 637.0428501170377C488.10529696885214 676.3861093295106 440.10676134366895 660.327947647645 360.9360449260781 601.6069648701474C281.7653285084873 542.8859820926498 141.5797194220121 450.8977857007367 165.1311512968137 355.18213278504925C188.68258317161536 259.4664798693619 376.1449386199648 130.1765834029256 473.9829179251258 142.171830874848C571.8208972302867 154.16707834677044 619.9268535915601 309.6611916414872 634.7534519615859 412.7593206502768C649.5800503316118 515.8574496590664 602.1958832336468 597.6995909045647 545.1505901012495 637.0428501170377 "></path><path d="M622.397959738947 412.0878111881118C636.4442108263399 509.7597228806493 591.5539472598468 587.2943830079635 537.511037976523 624.5669443671484C483.4681286931991 661.8395057263333 437.9958317851308 646.6265104487763 362.99199517899217 590.9961057121998C287.9881585728535 535.365700975623 155.18073943829808 448.2189886043368 177.49262226705747 357.54100163158034C199.80450509581692 266.8630146588239 377.4004207837269 144.37784958535798 470.08903275703733 155.7417682429687C562.7776447303477 167.10568690057937 608.351708651554 314.4158994955742 622.397959738947 412.0878111881118C636.4442108263399 509.7597228806493 591.5539472598468 587.2943830079635 537.511037976523 624.5669443671484 "></path><path d="M610.0424980338861 411.4162712083686C623.3084018386461 503.661965584654 580.9120418036248 576.8891445937841 529.8715163693746 612.091008099681C478.8309909351243 647.2928716055778 435.8849327441709 632.9250427323295 365.04797594948434 580.3852160366738C294.21101915479784 527.8453893410181 168.78178997216213 445.5401609903589 189.85412375487937 359.8998399605334C210.9264575375966 274.2595189307078 378.65593346506716 158.57908525021224 466.195178106527 169.3116750935112C553.7344227479869 180.04426493681024 596.776594229126 319.17057683208316 610.0424980338861 411.4162712083686C623.3084018386461 503.661965584654 580.9120418036248 576.8891445937841 529.8715163693746 612.091008099681 "></path><path d="M597.6871126227705 410.74465493468006C610.1726691448976 497.5641319947134 570.2702126413482 566.4838298856594 522.2320710561714 599.6149955382682C474.1939294709948 632.746161190877 433.7741099971563 619.2234987219375 367.1040330139218 569.7742500672027C300.43395603068745 520.3250014124678 182.38291679997155 442.8612570824357 202.21570153664658 362.2586019955411C222.04848627332166 281.65594690864646 379.91152244035277 172.78024462112114 462.301399749962 182.88150565010847C544.6912770595712 192.98276667909573 585.2015561006435 323.9251778746467 597.6871126227705 410.74465493468006C610.1726691448976 497.5641319947134 570.2702126413482 566.4838298856594 522.2320710561714 599.6149955382682 "></path><path d="M585.3316356589206 410.0732065076712C597.0368448984148 491.4664662514525 559.6282919263372 556.0786830242143 514.592534190234 587.1391508235351C469.55677645413084 618.1996186228558 431.6631956974072 605.5221225582252 369.159998525625 559.1634519444112C306.65680135384275 512.8047813305973 195.98395207504655 440.1825210211921 214.5771877656794 364.61753187722843C233.17042345631228 289.0525427332647 381.1670198629039 186.98157183870978 458.4075298406626 196.45150405338535C535.6480398184212 205.92143626806097 573.6264264194265 328.67994676389 585.3316356589206 410.0732065076712C597.0368448984148 491.4664662514525 559.6282919263372 556.0786830242143 514.592534190234 587.1391508235351 "></path><path d="M572.976219730227 409.4016665279281C583.9010816870882 485.36870895545735 548.9864322464824 545.673444610035 506.9530583594528 574.6632145560677C464.9196844724231 603.6529845021004 429.5523424328145 591.8206548417784 371.2160250724844 548.5525622688854C312.8797077121543 505.28446969599236 209.58504838527784 437.5036934072143 226.9387350298685 366.9763702061814C244.29242167445915 296.44904700514866 382.42257832061136 201.182807503564 454.5137209665195 210.02141090392792C526.6048636124276 218.86001430429178 562.0513577733658 333.4346241003989 572.976219730227 409.4016665279281C583.9010816870882 485.36870895545735 548.9864322464824 545.673444610035 506.9530583594528 574.6632145560677 "></path><path d="M560.6207732839551 408.7300502542396C570.7652879581834 479.27087536551664 538.3445420490496 535.2681299019102 499.3135520110934 562.187201994655C460.28256197313726 589.1062740873996 427.44145865064354 578.1191108313863 373.27202110176563 537.9415962994142C319.10258355288767 497.7640817674421 223.18611417793096 434.824789499291 239.30025177647946 369.3351322411891C255.41438937502795 303.84547498308723 383.6781062607407 215.38396687447295 450.6198815747982 223.5912414605251C517.5616568888559 231.79851604657728 550.4762586097269 338.18922514296247 560.6207732839551 408.7300502542396C570.7652879581834 479.27087536551664 538.3445420490496 535.2681299019102 499.3135520110934 562.187201994655 "></path><path d="M548.2653268376833 408.0584950157073C557.6294942292786 473.1731028107323 527.7026518516166 524.8628762289418 491.6740456627341 549.7112504683984C455.6454394738515 574.5596247078549 425.3305748684727 564.4176278561504 375.32801713104686 527.3306913650993C325.3254593936211 490.24375487404814 236.78717997058413 432.14594662652394 251.66176852309042 371.6939553113531C266.5363570755967 311.2419639961821 384.93363420087 229.58518728053815 446.72604218307697 237.16113305227861C508.51845016528387 244.73707882401908 538.9011594460881 342.9438872206823 548.2653268376833 408.0584950157073C557.6294942292786 473.1731028107323 527.7026518516166 524.8628762289418 491.6740456627341 549.7112504683984 "></path><path d="M535.9098803914117 407.38697029475316C544.493700500374 467.0753607735261 517.0607616541837 514.4576530735515 484.0345393143747 537.2353294597201C451.0083169745657 560.0130058458885 423.21969108630174 550.7161753984926 377.3840131603281 516.7198169483624C331.54833523435445 482.7234584982323 250.38824576323725 429.4671342713352 264.0232852697014 374.0528088990951C277.65832477616544 318.63848352685505 386.1891621409993 243.78643820418142 442.8322027913557 250.7310551616102C499.4752434417121 257.67567211903895 527.3260602824491 347.6985798159803 535.9098803914117 407.38697029475316C544.493700500374 467.0753607735261 517.0607616541837 514.4576530735515 484.0345393143747 537.2353294597201 "></path><path d="M523.5544492039289 406.715415056221C531.3579220302582 460.97758821874174 506.4188867155399 504.052399400583 476.39504822480444 524.7593779334636C446.371209734069 545.466356466344 421.10882256291995 537.0146924232569 379.44002444839845 506.1089120140475C337.77122633387694 475.2031316048383 263.9893268146795 426.78829139856816 276.3848172751014 376.4116319692591C288.7803077355233 326.03497253994993 387.44470533991773 257.9876586102466 438.9383786584235 264.3009467533637C490.4320519769293 270.61423489648075 515.7509763775994 352.4532418937001 523.5544492039289 406.715415056221C531.3579220302582 460.97758821874174 506.4188867155399 504.052399400583 476.39504822480444 524.7593779334636 "></path><path d="M511.1990027576571 406.0438750764778C518.2221283013536 454.8798309227466 495.776996518107 493.6471609864036 468.755541876445 512.2834416659961C441.73408723478315 530.9197223455885 418.997938780749 523.31322470681 381.4960204776797 495.49802233852176C343.99410217461036 467.68281997023337 277.5903926073326 424.1094637845903 288.74633402171236 378.77047029821205C299.90227543609205 333.4314768118338 388.70023328004703 272.18889427510084 435.04453926670226 277.8708536039062C481.38884525335743 283.55281293271156 504.1758772139606 357.207919230209 511.1990027576571 406.0438750764778C518.2221283013536 454.8798309227466 495.776996518107 493.6471609864036 468.755541876445 512.2834416659961 "></path><path d="M498.84354105259627 405.3723503555236C505.0863193136597 448.7820888855403 485.1350910618851 483.2419378310133 461.11602026929665 499.8075206573177C437.09694947670835 516.3731034836221 416.8870397397891 509.6117722491524 383.55200124817185 484.88714792178496C350.21696275655466 460.1625235944175 291.1914431411967 421.43065142940145 301.10783550953425 381.12932388595414C311.02422787787174 340.8279963425068 389.9557459613873 286.39014519874416 431.15068461619194 291.4407757132378C472.3456232709966 296.4914062277315 492.6007627915327 361.96261182550694 498.84354105259627 405.3723503555236C505.0863193136597 448.7820888855403 485.1350910618851 483.2419378310133 461.11602026929665 499.8075206573177 "></path><path d="M486.4881251239026 404.70081037578046C491.95055610233317 442.6843315895451 474.4932313820303 472.8366994168339 453.4765444385155 487.33158438985026C432.4598574950006 501.82646936286665 414.7761864751963 495.9103045327056 385.60802779503126 474.2762582462591C356.4398691148662 452.6422119598126 304.79253945142796 418.75182381542356 313.4693827737233 383.4881622149071C322.14622609601867 348.2245006143907 391.21130441909474 300.59138086359843 427.2568757420488 305.01068256378034C463.30244706500287 309.4299842639623 481.025694145472 366.71728916201585 486.4881251239026 404.70081037578046C491.95055610233317 442.6843315895451 474.4932313820303 472.8366994168339 453.4765444385155 487.33158438985026 "></path><path d="M474.1326634188417 404.0292551372482C478.8147471146393 436.5865590347607 463.8513259258083 462.4314457438654 445.83702283136705 474.8556328635937C427.82271973692576 487.279819983322 412.66528743423635 482.2088215574697 387.66400856552343 463.66535331194416C362.6627296968105 445.1218850664186 318.39358998529207 416.0729809426565 325.8308842615452 385.84698528507107C333.26817853779835 355.6209896274856 392.46681710043504 314.7926012696636 423.3630210915385 318.58057415553384C454.25922508264193 322.36854704140404 469.45057972304403 371.4719512397357 474.1326634188417 404.0292551372482C478.8147471146393 436.5865590347607 463.8513259258083 462.4314457438654 445.83702283136705 474.8556328635937 "></path><path d="M461.777232231359 403.357715157505C465.67896864452365 430.4888017387654 453.2094509871645 452.02620732968603 438.19753174179675 462.37969659612634C423.18561249642903 472.73318586256653 410.5544189108545 468.50735384102296 389.7200198535937 453.0544636364183C368.885620796333 437.6015734318137 331.99467103673425 413.3941533286786 338.1924162669452 388.20582361402404C344.39016149715616 363.01749389936947 393.7223602993534 328.99383693451784 419.4691969586063 332.15048100607635C445.2160336178592 335.3071250776349 457.8754958181942 376.2266285762446 461.777232231359 403.357715157505C465.67896864452365 430.4888017387654 453.2094509871645 452.02620732968603 438.19753174179675 462.37969659612634 "></path><path d="M449.42177052629813 402.6861751777618C452.54315965682986 424.3910444427702 442.56754553094254 441.62096891550664 430.5580101346483 449.90376032865885C418.5484747383542 458.18655174181106 408.44351986989454 454.8058861245762 391.77600062408595 442.4435739608925C375.10848137827736 430.08126179720875 345.59572157059836 410.7153257147007 350.5539177547671 390.56466194297707C355.5121139389359 370.4139981712534 394.97787298069363 343.1950725993721 415.57534230809597 345.7203878566189C436.1728116354983 348.2457031138657 446.30038139576635 380.9813059127535 449.42177052629813 402.6861751777618C452.54315965682986 424.3910444427702 442.56754553094254 441.62096891550664 430.5580101346483 449.90376032865885 "></path><path d="M437.06632408002633 402.0146351980186C439.4073659279251 418.2932871467749 431.9256553335096 431.21573050132724 422.91850378628897 437.42782406119136C413.9113522390683 443.63991762105553 406.33263608772364 441.1044184081294 393.8319966533672 431.8326842853666C381.3313572190107 422.56095016260383 359.1967873632515 408.0364981007228 362.91543450137806 392.92350027193004C366.63408163950464 377.8105024431373 396.233400920823 357.3963082642263 411.6815029163747 359.2902947071614C427.12960491192644 361.1842811500966 434.7252822321275 385.73598324926235 437.06632408002633 402.0146351980186C439.4073659279251 418.2932871467749 431.9256553335096 431.21573050132724 422.91850378628897 437.42782406119136 "></path><path d="M424.7108928925436 401.34309521827544C426.27158745780946 412.1955298507796 421.2837803948658 420.81049208714785 415.2790126967187 424.951887793724C409.2742449985716 429.09328350030006 404.2217675643418 427.40295069168263 395.8880079414375 421.22179460984074C387.5542483185332 415.0406385279989 372.7978684146937 405.3576704867449 375.2769665067781 395.28233860088307C377.75606459886245 385.20700671502124 397.48894411974135 371.5975439290806 407.7876787834425 372.860201557704C418.0864134471437 374.1228591863274 423.1501983272777 390.49066058577125 424.7108928925436 401.34309521827544C426.27158745780946 412.1955298507796 421.2837803948658 420.81049208714785 415.2790126967187 424.951887793724 "></path><path d="M412.3554464462718 400.6715399797432C413.13579372890473 406.0977572959953 410.6418901974329 410.4052384141794 407.63950634835936 412.47593626746743C404.6371224992858 414.54663412075547 402.1108837821709 413.70146771644676 397.94400397071877 410.61088967552587C393.7771241592666 407.5203116346049 386.3989342073468 402.6788276139779 387.63848325338904 397.641161671047C388.87803229943125 392.60349572811606 398.7444720598707 385.79876433514573 403.89383939172126 386.43009314945743C409.0432067235718 387.0614219637692 411.57509916363887 395.2453226634911 412.3554464462718 400.6715399797432C413.13579372890473 406.0977572959953 410.6418901974329 410.4052384141794 407.63950634835936 412.47593626746743 "></path></g></svg>