<svg xmlns="http://www.w3.org/2000/svg" version="1.1" xmlns:xlink="http://www.w3.org/1999/xlink" xmlns:svgjs="http://svgjs.dev/svgjs" viewBox="0 0 800 800"><defs><linearGradient x1="50%" y1="0%" x2="50%" y2="100%" id="wwwhirl-grad"><stop stop-color="hsl(180, 69%, 40%)" stop-opacity="1" offset="45%"></stop><stop stop-color="hsl(180, 69%, 60%)" stop-opacity="1" offset="100%"></stop></linearGradient></defs><g stroke-width="2" stroke="url(#wwwhirl-grad)" fill="none" stroke-linecap="round"><path d="M-48 437.10872116088865C-10.666666666666686 421.242054494222 101.33333333333337 343.3087211608887 176 341.90872116088866C250.66666666666663 340.5087211608887 325.33333333333337 423.8087211608887 400 428.7087211608887C474.66666666666674 433.60872116088865 549.3333333333333 366.40872116088866 624 371.3087211608887C698.6666666666667 376.2087211608887 810.6666666666667 443.64205449422195 848 458.10872116088865 " transform="rotate(136, 400, 400)"></path><path d="M-34 435.94907863140105C2.166666666666657 420.5782452980677 110.66666666666669 345.0803286314011 183 343.7240786314011C255.33333333333331 342.36782863140104 327.66666666666674 423.0647036314011 400 427.81157863140106C472.33333333333337 432.55845363140105 544.6666666666666 367.4584536314011 617 372.2053286314011C689.3333333333334 376.95220363140106 797.8333333333334 442.2782452980677 834 456.29282863140105 " transform="rotate(131.75, 400, 400)"></path><path d="M-20 434.7894284725189C15 419.9144284725189 120 346.8519284725189 190 345.5394284725189C259.99999999999994 344.2269284725189 330.00000000000006 422.3206784725189 400 426.9144284725189C470.0000000000001 431.5081784725189 539.9999999999999 368.5081784725189 610 373.1019284725189C680.0000000000001 377.6956784725189 785.0000000000001 440.9144284725189 820 454.4769284725189 " transform="rotate(127.5, 400, 400)"></path><path d="M-6 433.6297783136368C27.833333333333314 419.2506116469701 129.33333333333337 348.62352831363677 197 347.35477831363676C264.66666666666663 346.0860283136368 332.33333333333337 421.57665331363677 400 426.0172783136368C467.66666666666674 430.4579033136368 535.3333333333333 369.55790331363676 603 373.99852831363677C670.6666666666667 378.4391533136368 772.1666666666667 439.5506116469701 806 452.6610283136368 " transform="rotate(123.25, 400, 400)"></path><path d="M8 432.4701357841492C40.66666666666666 418.58680245081587 138.66666666666669 350.39513578414915 204 349.1701357841492C269.3333333333333 347.94513578414916 334.6666666666667 420.83263578414915 400 425.12013578414917C465.33333333333337 429.4076357841492 530.6666666666666 370.6076357841492 596 374.89513578414915C661.3333333333334 379.18263578414917 759.3333333333334 438.18680245081583 792 450.8451357841492 " transform="rotate(119, 400, 400)"></path><path d="M22 431.310485625267C53.5 417.922985625267 148 352.16673562526705 211 350.985485625267C274 349.80423562526704 337 420.08861062526705 400 424.22298562526703C463 428.357360625267 526 371.657360625267 589 375.79173562526705C652 379.92611062526703 746.5 436.82298562526705 778 449.029235625267 " transform="rotate(114.75, 400, 400)"></path><path d="M36 430.1508354663849C66.33333333333331 417.2591687997182 157.33333333333337 353.9383354663849 218 352.8008354663849C278.66666666666663 351.66333546638486 339.33333333333337 419.3445854663849 400 423.3258354663849C460.66666666666674 427.3070854663849 521.3333333333333 372.7070854663849 582 376.6883354663849C642.6666666666667 380.6695854663849 733.6666666666667 435.4591687997182 764 447.2133354663849 " transform="rotate(110.5, 400, 400)"></path><path d="M50 428.9911929368973C79.16666666666666 416.59535960356396 166.66666666666669 355.7099429368973 225 354.6161929368973C283.3333333333333 353.5224429368973 341.6666666666667 418.6005679368973 400 422.4286929368973C458.33333333333337 426.2568179368973 516.6666666666666 373.7568179368973 575 377.5849429368973C633.3333333333334 381.4130679368973 720.8333333333334 434.0953596035639 750 445.3974429368973 " transform="rotate(106.25, 400, 400)"></path><path d="M64 427.8315465927124C92 415.9315465927124 176 357.4815465927124 232 356.4315465927124C288 355.3815465927124 344 417.8565465927124 400 421.5315465927124C456 425.2065465927124 512 374.8065465927124 568 378.4815465927124C624 382.1565465927124 708 432.7315465927124 736 443.5815465927124 " transform="rotate(102, 400, 400)"></path><path d="M78 426.6718964338303C104.83333333333331 415.2677297671636 185.33333333333337 359.25314643383024 239 358.2468964338303C292.66666666666663 357.24064643383025 346.33333333333337 417.11252143383024 400 420.63439643383026C453.66666666666674 424.1562714338303 507.33333333333326 375.8562714338303 561 379.37814643383024C614.6666666666667 382.90002143383026 695.1666666666667 431.3677297671636 722 441.7656464338303 " transform="rotate(97.75, 400, 400)"></path><path d="M92 425.51225008964536C117.66666666666666 414.60391675631206 194.66666666666669 361.0247500896454 246 360.0622500896454C297.3333333333333 359.0997500896454 348.6666666666667 416.3685000896454 400 419.7372500896454C451.33333333333337 423.10600008964536 502.66666666666663 376.9060000896454 554 380.2747500896454C605.3333333333334 383.6435000896454 682.3333333333334 430.00391675631204 708 439.94975008964536 " transform="rotate(93.5, 400, 400)"></path><path d="M106 424.35259993076323C130.5 413.94009993076327 204 362.79634993076326 253 361.87759993076327C302 360.9588499307632 351 415.62447493076326 400 418.84009993076324C449.00000000000006 422.05572493076323 498 377.95572493076327 547 381.17134993076326C596 384.38697493076324 669.5 428.6400999307632 694 438.13384993076323 " transform="rotate(89.25, 400, 400)"></path><path d="M120 423.1929497718811C143.33333333333331 413.2762831052144 213.33333333333334 364.5679497718811 260 363.6929497718811C306.66666666666663 362.8179497718811 353.33333333333337 414.8804497718811 400 417.9429497718811C446.6666666666667 421.0054497718811 493.33333333333326 379.0054497718811 540 382.0679497718811C586.6666666666667 385.1304497718811 656.6666666666667 427.2762831052144 680 436.3179497718811 " transform="rotate(85, 400, 400)"></path><path d="M134 422.03330342769624C156.16666666666666 412.6124700943629 222.66666666666669 366.3395534276962 267 365.5083034276962C311.3333333333333 364.67705342769625 355.6666666666667 414.1364284276962 400 417.0458034276962C444.33333333333337 419.95517842769624 488.66666666666663 380.0551784276962 533 382.9645534276962C577.3333333333334 385.8739284276962 643.8333333333334 425.9124700943629 666 434.50205342769624 " transform="rotate(80.75, 400, 400)"></path><path d="M148 420.8736570835114C169 411.94865708351136 232 368.11115708351133 274 367.32365708351136C316 366.53615708351134 358 413.39240708351133 400 416.14865708351135C442.00000000000006 418.9049070835114 483.99999999999994 381.10490708351136 526 383.86115708351133C568 386.61740708351135 631 424.54865708351133 652 432.6861570835114 " transform="rotate(76.5, 400, 400)"></path><path d="M162 419.71401073932645C181.83333333333331 411.2848440726598 241.33333333333334 369.8827607393265 281 369.13901073932647C320.66666666666663 368.3952607393265 360.33333333333337 412.6483857393265 400 415.2515107393265C439.6666666666667 417.85463573932645 479.3333333333333 382.15463573932647 519 384.7577607393265C558.6666666666667 387.3608857393265 618.1666666666667 423.1848440726598 638 430.87026073932645 " transform="rotate(72.25, 400, 400)"></path><path d="M176 418.5543605804443C194.66666666666666 410.621027247111 250.66666666666669 371.65436058044435 288 370.95436058044436C325.3333333333333 370.2543605804443 362.6666666666667 411.90436058044435 400 414.35436058044434C437.33333333333337 416.8043605804443 474.66666666666663 383.20436058044436 512 385.65436058044435C549.3333333333334 388.10436058044434 605.3333333333334 421.821027247111 624 429.0543605804443 " transform="rotate(68, 400, 400)"></path><path d="M190 417.39471423625946C207.5 409.95721423625946 260 373.42596423625946 295 372.76971423625946C330 372.11346423625946 365 411.16033923625946 400 413.45721423625946C435.00000000000006 415.75408923625946 469.99999999999994 384.25408923625946 505 386.55096423625946C540 388.84783923625946 592.5 420.45721423625946 610 427.23846423625946 " transform="rotate(63.75, 400, 400)"></path><path d="M204 416.23506598472596C220.33333333333331 409.2933993180593 269.33333333333337 375.19756598472594 302 374.58506598472593C334.66666666666663 373.972565984726 367.33333333333337 410.41631598472594 400 412.56006598472595C432.6666666666667 414.70381598472596 465.3333333333333 385.30381598472593 498 387.44756598472594C530.6666666666667 389.59131598472595 579.6666666666667 419.09339931805926 596 425.42256598472596 " transform="rotate(59.5, 400, 400)"></path><path d="M218 415.0754196405411C233.16666666666666 408.6295863072078 278.6666666666667 376.96916964054105 309 376.4004196405411C339.3333333333333 375.83166964054107 369.6666666666667 409.67229464054105 400 411.6629196405411C430.33333333333337 413.6535446405411 460.66666666666663 386.3535446405411 491 388.34416964054105C521.3333333333334 390.3347946405411 566.8333333333334 417.72958630720774 582 423.6066696405411 " transform="rotate(55.25, 400, 400)"></path><path d="M232 413.91577138900755C246 407.96577138900756 288 378.7407713890076 316 378.21577138900756C344 377.6907713890076 372 408.9282713890076 400 410.76577138900757C428 412.60327138900755 456 387.40327138900756 484 389.2407713890076C512 391.07827138900757 554 416.3657713890076 568 421.79077138900755 " transform="rotate(51, 400, 400)"></path><path d="M246 412.75612313747405C258.8333333333333 407.3019564708074 297.33333333333337 380.51237313747407 323 380.0311231374741C348.66666666666663 379.54987313747404 374.33333333333337 408.18424813747407 400 409.86862313747406C425.6666666666667 411.55299813747405 451.3333333333333 388.4529981374741 477 390.13737313747407C502.6666666666667 391.82174813747406 541.1666666666667 415.0019564708074 554 419.97487313747405 " transform="rotate(46.75, 400, 400)"></path><path d="M260 411.5964767932892C271.66666666666663 406.63814345995587 306.6666666666667 382.2839767932892 330 381.8464767932892C353.3333333333333 381.4089767932892 376.6666666666667 407.4402267932892 400 408.9714767932892C423.33333333333337 410.5027267932892 446.66666666666663 389.5027267932892 470 391.0339767932892C493.33333333333337 392.5652267932892 528.3333333333334 413.63814345995587 540 418.1589767932892 " transform="rotate(42.5, 400, 400)"></path><path d="M274 410.4368285417557C284.5 405.97432854175565 316 384.05557854175566 337 383.66182854175565C358 383.2680785417557 379 406.69620354175566 400 408.0743285417557C421 409.4524535417557 442 390.55245354175565 463 391.93057854175566C484 393.3087035417557 515.5 412.27432854175566 526 416.3430785417557 " transform="rotate(38.25, 400, 400)"></path><path d="M288 409.2771812438965C297.33333333333337 405.3105145772298 325.33333333333337 385.82718124389646 344 385.4771812438965C362.66666666666663 385.1271812438965 381.33333333333337 405.95218124389646 400 407.1771812438965C418.6666666666667 408.4021812438965 437.3333333333333 391.6021812438965 456 392.82718124389646C474.6666666666667 394.0521812438965 502.6666666666667 410.91051457722983 512 414.5271812438965 " transform="rotate(34, 400, 400)"></path><path d="M302 408.11753394603727C310.16666666666663 404.64670061270397 334.6666666666667 387.5987839460373 351 387.2925339460373C367.3333333333333 386.9862839460373 383.6666666666667 405.2081589460373 400 406.2800339460373C416.33333333333337 407.35190894603727 432.66666666666663 392.6519089460373 449 393.7237839460373C465.33333333333337 394.7956589460373 489.83333333333337 409.54670061270394 498 412.71128394603727 " transform="rotate(29.75, 400, 400)"></path><path d="M316 406.9578856945038C323 403.9828856945038 344 389.3703856945038 358 389.1078856945038C372 388.84538569450376 386 404.4641356945038 400 405.3828856945038C414 406.3016356945038 428 393.7016356945038 442 394.6203856945038C456 395.5391356945038 477 408.1828856945038 484 410.8953856945038 " transform="rotate(25.5, 400, 400)"></path><path d="M330 405.7982383966446C335.83333333333337 403.3190717299779 353.33333333333337 391.1419883966446 365 390.9232383966446C376.66666666666663 390.7044883966446 388.33333333333337 403.7201133966446 400 404.4857383966446C411.6666666666667 405.2513633966446 423.3333333333333 394.7513633966446 435 395.5169883966446C446.6666666666667 396.2826133966446 464.1666666666667 406.8190717299779 470 409.0794883966446 " transform="rotate(21.25, 400, 400)"></path><path d="M344 404.6385901451111C348.66666666666663 402.65525681177775 362.66666666666663 392.9135901451111 372 392.73859014511106C381.3333333333333 392.5635901451111 390.6666666666667 402.9760901451111 400 403.5885901451111C409.33333333333337 404.2010901451111 418.66666666666663 395.80109014511106 428 396.4135901451111C437.33333333333337 397.0260901451111 451.33333333333337 405.45525681177776 456 407.2635901451111 " transform="rotate(17, 400, 400)"></path><path d="M358 403.4789428472519C361.5 401.9914428472519 372 394.68519284725187 379 394.5539428472519C386 394.4226928472519 393 402.23206784725187 400 402.6914428472519C407 403.1508178472519 414 396.8508178472519 421 397.31019284725187C428 397.7695678472519 438.5 404.09144284725187 442 405.4476928472519 " transform="rotate(12.75, 400, 400)"></path><path d="M372 402.3192955493927C374.33333333333337 401.327628882726 381.33333333333337 396.4567955493927 386 396.3692955493927C390.66666666666663 396.2817955493927 395.33333333333337 401.4880455493927 400 401.7942955493927C404.6666666666667 402.1005455493927 409.3333333333333 397.9005455493927 414 398.2067955493927C418.6666666666667 398.5130455493927 425.6666666666667 402.72762888272604 428 403.6317955493927 " transform="rotate(8.5, 400, 400)"></path><path d="M386 401.1596482515335C387.16666666666663 400.66381491820016 390.66666666666663 398.2283982515335 393 398.18464825153353C395.33333333333337 398.1408982515335 397.66666666666663 400.7440232515335 400 400.8971482515335C402.33333333333337 401.0502732515335 404.66666666666663 398.95027325153353 407 399.1033982515335C409.33333333333337 399.2565232515335 412.83333333333337 401.3638149182002 414 401.8158982515335 " transform="rotate(4.25, 400, 400)"></path></g></svg>