<?xml version="1.0" encoding="UTF-8"?>
<svg id="Layer_1" data-name="Layer 1" xmlns="http://www.w3.org/2000/svg" viewBox="0 0 1484.66 433.98">
  <defs>
    <style>
      .cls-1 {
        fill: #1ee6e3;
      }
    </style>
  </defs>
  <g>
    <path class="cls-1" d="m407.21,152.36l-125.59-125.59C264.35,9.51,241.4,0,216.99,0s-47.36,9.51-64.63,26.77L26.77,152.36C9.51,169.63,0,192.58,0,216.99s9.51,47.37,26.77,64.63l125.59,125.59c17.26,17.26,40.21,26.77,64.63,26.77s47.36-9.51,64.63-26.77l125.59-125.59c17.26-17.26,26.77-40.21,26.77-64.63s-9.51-47.36-26.77-64.63Zm-11.31,117.94l-125.59,125.59c-14.24,14.24-33.17,22.08-53.31,22.08s-39.07-7.84-53.31-22.08l-106.3-106.3h99.95l28.68,49.67h61.97l30.99-53.67-30.99-53.67h-61.97l-28.68,49.67H49.38l-11.29-11.29c-14.24-14.24-22.08-33.17-22.08-53.31s7.84-39.07,22.08-53.31l125.59-125.59c14.7-14.7,34.01-22.05,53.31-22.05s38.61,7.35,53.31,22.05l106.3,106.3h-99.95l-28.68-49.67h-61.97l-30.99,53.67,30.99,53.67h61.97l28.68-49.67h107.95l11.29,11.29c14.24,14.24,22.08,33.17,22.08,53.31s-7.84,39.07-22.08,53.31Zm-222.4,15.29l21.75-37.67h43.5l21.75,37.67-21.75,37.67h-43.5l-21.75-37.67Zm86.99-137.21l-21.75,37.67h-43.5l-21.75-37.67,21.75-37.67h43.5l21.75,37.67Z"/>
    <polygon class="cls-1" points="278.69 174.92 256.71 212.99 177.27 212.99 155.29 174.92 106.72 174.92 82.43 216.99 106.72 259.06 155.29 259.06 177.27 220.99 256.71 220.99 278.69 259.06 327.26 259.06 351.55 216.99 327.26 174.92 278.69 174.92"/>
  </g>
  <g>
    <path class="cls-1" d="m507.18,244.67l-23.8,64.7h-14.71l68.71-187.15h17.11l71.65,187.15h-15.77l-24.33-64.7h-78.87Zm74.06-13.37c-20.85-55.61-31.55-82.35-35.29-94.91h-.27c-4.54,14.17-16.58,47.32-33.42,94.91h68.98Z"/>
    <path class="cls-1" d="m768.13,309.38l-56.41-84.22h-.27l-55.88,84.22h-16.84l63.9-95.18-61.23-91.97h16.84l53.47,79.94h.27l54.54-79.94h16.84l-63.1,90.9,64.97,96.25h-17.11Z"/>
    <path class="cls-1" d="m966.25,214.46c0,51.07-27.27,97.59-85.02,97.59-52.67,0-83.42-42.51-83.42-96.25s29.68-96.25,85.29-96.25c51.33,0,83.15,40.37,83.15,94.91Zm-152.93.53c0,43.05,23.8,83.69,68.71,83.69,48.39,0,68.71-39.57,68.71-83.95s-22.99-81.81-68.18-81.81c-48.12,0-69.25,39.84-69.25,82.08Z"/>
    <path class="cls-1" d="m1007.42,309.38V122.22h21.39c29.14,44.92,97.59,149.46,109.35,169.78h.27c-1.6-27-1.34-54.54-1.34-85.02v-84.75h14.71v187.15h-19.78c-27.81-43.31-97.32-152.13-110.69-172.72h-.27c1.34,24.6,1.07,51.87,1.07,85.82v86.89h-14.71Z"/>
    <path class="cls-1" d="m1247.24,309.38v-70.32c0-1.6-.54-3.48-1.07-4.28l-66.84-112.56h16.84c18.72,31.82,51.33,87.16,59.36,101.06,8.02-13.9,40.91-68.71,60.96-101.06h16.04l-69.78,113.63c-.54,1.07-.8,2.14-.8,4.01v69.51h-14.71Z"/>
    <path class="cls-1" d="m1465.95,309.38l-56.41-84.22h-.27l-55.88,84.22h-16.84l63.9-95.18-61.23-91.97h16.84l53.47,79.94h.27l54.54-79.94h16.84l-63.1,90.9,64.97,96.25h-17.11Z"/>
  </g>
  <g>
    <path class="cls-1" d="m471.76,353.8v39.93h-3.08v-39.93h3.08Z"/>
    <path class="cls-1" d="m499.48,393.73v-39.93h4.56c6.22,9.58,20.82,31.89,23.33,36.22h.06c-.34-5.76-.29-11.64-.29-18.14v-18.08h3.14v39.93h-4.22c-5.93-9.24-20.76-32.46-23.62-36.85h-.06c.29,5.25.23,11.07.23,18.31v18.54h-3.14Z"/>
    <path class="cls-1" d="m558.01,393.73v-39.93h4.56c6.22,9.58,20.82,31.89,23.33,36.22h.06c-.34-5.76-.29-11.64-.29-18.14v-18.08h3.14v39.93h-4.22c-5.93-9.24-20.76-32.46-23.62-36.85h-.06c.29,5.25.23,11.07.23,18.31v18.54h-3.14Z"/>
    <path class="cls-1" d="m649.5,373.48c0,10.9-5.82,20.82-18.14,20.82-11.24,0-17.8-9.07-17.8-20.54s6.33-20.54,18.2-20.54c10.95,0,17.74,8.61,17.74,20.25Zm-32.63.11c0,9.18,5.08,17.85,14.66,17.85,10.33,0,14.66-8.44,14.66-17.91s-4.91-17.46-14.55-17.46c-10.27,0-14.77,8.5-14.77,17.51Z"/>
    <path class="cls-1" d="m684.3,393.73l-14.83-39.93h3.31l7.76,20.88c2.22,6.05,4.73,12.72,5.59,16.09h.11c.86-2.97,3.59-9.98,5.82-15.86l8.04-21.11h3.25l-15.4,39.93h-3.65Z"/>
    <path class="cls-1" d="m726,379.93l-5.08,13.8h-3.14l14.66-39.93h3.65l15.29,39.93h-3.37l-5.19-13.8h-16.83Zm15.8-2.85c-4.45-11.87-6.73-17.57-7.53-20.25h-.06c-.97,3.02-3.54,10.1-7.13,20.25h14.72Z"/>
    <path class="cls-1" d="m777.56,356.65h-13.41v-2.85h30.01v2.85h-13.46v37.08h-3.14v-37.08Z"/>
    <path class="cls-1" d="m819.15,353.8v39.93h-3.08v-39.93h3.08Z"/>
    <path class="cls-1" d="m879.84,373.48c0,10.9-5.82,20.82-18.14,20.82-11.24,0-17.8-9.07-17.8-20.54s6.33-20.54,18.2-20.54c10.95,0,17.74,8.61,17.74,20.25Zm-32.63.11c0,9.18,5.08,17.85,14.66,17.85,10.33,0,14.66-8.44,14.66-17.91s-4.91-17.46-14.55-17.46c-10.27,0-14.77,8.5-14.77,17.51Z"/>
    <path class="cls-1" d="m904.6,393.73v-39.93h4.56c6.22,9.58,20.82,31.89,23.33,36.22h.06c-.34-5.76-.28-11.64-.28-18.14v-18.08h3.14v39.93h-4.22c-5.93-9.24-20.76-32.46-23.62-36.85h-.06c.28,5.25.23,11.07.23,18.31v18.54h-3.14Z"/>
    <path class="cls-1" d="m993.35,353.8h13.92c7.64,0,11.75,4.05,11.75,9.81,0,4.73-2.85,7.82-6.16,8.73,2.85.8,7.59,3.59,7.59,9.87,0,7.99-5.99,11.52-12.95,11.52h-14.15v-39.93Zm12.89,17.17c6.9,0,9.53-2.57,9.53-7.19,0-3.94-2.74-7.13-8.33-7.13h-11.07v14.32h9.87Zm-9.87,19.91h11.24c5.25,0,9.64-2.62,9.64-8.5,0-5.08-3.25-8.56-11.29-8.56h-9.58v17.06Z"/>
    <path class="cls-1" d="m1053.7,393.73v-15c0-.34-.11-.74-.23-.91l-14.26-24.02h3.59c3.99,6.79,10.95,18.6,12.66,21.56,1.71-2.97,8.73-14.66,13.01-21.56h3.42l-14.89,24.24c-.11.23-.17.46-.17.86v14.83h-3.14Z"/>
    <path class="cls-1" d="m1125.81,373.48c0,10.9-5.82,20.82-18.14,20.82-11.24,0-17.8-9.07-17.8-20.54s6.33-20.54,18.2-20.54c10.95,0,17.74,8.61,17.74,20.25Zm-32.63.11c0,9.18,5.08,17.85,14.66,17.85,10.33,0,14.66-8.44,14.66-17.91s-4.91-17.46-14.55-17.46c-10.27,0-14.77,8.5-14.77,17.51Z"/>
    <path class="cls-1" d="m1150.56,393.73v-39.93h4.56c6.22,9.58,20.82,31.89,23.33,36.22h.06c-.34-5.76-.28-11.64-.28-18.14v-18.08h3.14v39.93h-4.22c-5.93-9.24-20.76-32.46-23.62-36.85h-.06c.28,5.25.23,11.07.23,18.31v18.54h-3.14Z"/>
    <path class="cls-1" d="m1209.09,353.8h13.23c10.95,0,18.54,7.64,18.54,19.62s-7.42,20.31-18.6,20.31h-13.18v-39.93Zm3.08,37.08h9.64c10.55,0,15.74-7.42,15.74-17.28,0-8.79-4.68-16.94-15.74-16.94h-9.64v34.23Z"/>
    <path class="cls-1" d="m1319.86,374.11h-20.37v16.77h22.3l-.46,2.85h-24.93v-39.93h24.47v2.85h-21.39v14.6h20.37v2.85Z"/>
    <path class="cls-1" d="m1345.65,353.8h13.23c10.95,0,18.54,7.64,18.54,19.62s-7.42,20.31-18.6,20.31h-13.18v-39.93Zm3.08,37.08h9.64c10.55,0,15.74-7.42,15.74-17.28,0-8.79-4.68-16.94-15.74-16.94h-9.64v34.23Z"/>
    <path class="cls-1" d="m1432.98,393.73h-2.57c-.23-.46-.34-2.51-.4-6.39-1.43,2.74-4.56,6.85-12.89,6.85-11.47,0-17.34-8.73-17.34-20.08,0-11.92,6.28-20.88,17.97-20.88,8.61,0,14.32,4.51,15.57,11.87h-3.08c-1.71-5.65-5.65-9.01-12.61-9.01-9.98,0-14.55,7.76-14.55,17.85,0,9.13,4.39,17.4,14.15,17.4s12.78-6.5,12.78-15.34v-.46h-12.89v-2.85h15.86v21.05Z"/>
    <path class="cls-1" d="m1482.72,374.11h-20.37v16.77h22.3l-.46,2.85h-24.93v-39.93h24.47v2.85h-21.39v14.6h20.37v2.85Z"/>
  </g>
</svg>